<svg width="30" height="30" viewBox="0 0 30 30" fill="none" xmlns="http://www.w3.org/2000/svg">
<path d="M15.4699 3.01162C15.3528 3.00124 15.234 3.00137 15.1148 3.01397C14.6366 3.06617 14.2078 3.30168 13.9066 3.67608C13.2844 4.44948 13.408 5.58513 14.182 6.20733L16.1624 7.7999H5.97651C4.98411 7.7999 4.17651 8.6075 4.17651 9.59991C4.17651 10.5923 4.98411 11.3999 5.97651 11.3999H10.4378L1.8937 18.3058C1.5055 18.6196 1.26329 19.0658 1.21049 19.562C1.15829 20.0582 1.30099 20.5461 1.61479 20.9343C1.92859 21.3225 2.37484 21.5647 2.87104 21.6175C3.36724 21.6697 3.85511 21.527 4.24331 21.2132L8.39878 17.8546C8.74618 22.6192 13.1783 26.3999 18.5765 26.3999C24.2009 26.3999 28.7765 22.2953 28.7765 17.2499C28.7765 14.1323 27.031 11.2627 24.1042 9.56592L16.4378 3.40186C16.1566 3.17596 15.821 3.04279 15.4699 3.01162ZM18.5765 11.9999C21.5537 11.9999 23.9765 14.0183 23.9765 16.4999C23.9765 18.9815 21.5537 20.9999 18.5765 20.9999C15.5993 20.9999 13.1765 18.9815 13.1765 16.4999C13.1765 14.0183 15.5993 11.9999 18.5765 11.9999ZM18.5765 13.1999C17.6217 13.1999 16.7061 13.516 16.0309 14.0786C15.3558 14.6412 14.9765 15.4043 14.9765 16.1999C14.9765 16.9956 15.3558 17.7586 16.0309 18.3212C16.7061 18.8838 17.6217 19.1999 18.5765 19.1999C19.5313 19.1999 20.447 18.8838 21.1221 18.3212C21.7972 17.7586 22.1765 16.9956 22.1765 16.1999C22.1765 15.4043 21.7972 14.6412 21.1221 14.0786C20.447 13.516 19.5313 13.1999 18.5765 13.1999Z" fill="#353532"/>
</svg>
