<svg width="30" height="30" viewBox="0 0 30 30" fill="none" xmlns="http://www.w3.org/2000/svg">
<path d="M26.3461 7.20225L16.2422 1.52334C15.4758 1.09443 14.5242 1.09443 13.7578 1.52334L3.65393 7.20225C2.88049 7.63584 2.40002 8.44912 2.40002 9.321V20.6788C2.40002 21.5507 2.88049 22.364 3.65393 22.7976L13.7578 28.4765C14.1422 28.6921 14.5711 28.7999 15 28.7999C15.4289 28.7999 15.8578 28.6921 16.2422 28.4765L26.3461 22.7976C27.1196 22.364 27.6 21.5507 27.6 20.6788V9.321C27.6 8.44912 27.1196 7.63584 26.3461 7.20225ZM15 22.1999C11.0297 22.1999 7.80002 18.9702 7.80002 14.9999C7.80002 11.0296 11.0297 7.7999 15 7.7999C17.2688 7.7999 19.3641 8.85225 20.7258 10.6452L18.0961 12.1663C17.3063 11.3015 16.1836 10.7999 15 10.7999C12.6844 10.7999 10.8 12.6843 10.8 14.9999C10.8 17.3155 12.6844 19.1999 15 19.1999C16.1836 19.1999 17.3063 18.6983 18.0961 17.8335L20.7258 19.3546C19.3641 21.1476 17.2688 22.1999 15 22.1999ZM22.2 15.5999H21V16.7999H19.8V15.5999H18.6V14.3999H19.8V13.1999H21V14.3999H22.2V15.5999ZM26.4 15.5999H25.2V16.7999H24V15.5999H22.8V14.3999H24V13.1999H25.2V14.3999H26.4V15.5999Z" fill="#353532"/>
</svg>
