<svg width="30" height="30" viewBox="0 0 30 30" fill="none" xmlns="http://www.w3.org/2000/svg">
<path d="M25.428 3.333C25.238 3.121 24.967 3 24.683 3H5.31702C5.03302 3 4.76202 3.121 4.57202 3.333C4.38202 3.545 4.29202 3.828 4.32302 4.11L6.52502 23.933C6.56902 24.336 6.85402 24.673 7.24402 24.784L14.724 26.921C14.814 26.947 14.907 26.96 14.999 26.96C15.091 26.96 15.184 26.947 15.274 26.921L22.754 24.784C23.144 24.673 23.428 24.336 23.473 23.933L25.676 4.11C25.708 3.828 25.618 3.545 25.428 3.333ZM20.516 13.074L20.07 20.359L15.032 22.006L9.99402 20.359L9.80302 16.875H12.353L12.417 18.459L15.032 19.346L17.647 18.459L17.838 15.609H12.226L12.099 13.075H17.966L18.157 10.541H9.35602L9.16502 8.006H20.835L20.516 13.074Z" fill="#353532"/>
</svg>
