<svg width="22" height="20" viewBox="0 0 22 20" fill="none" xmlns="http://www.w3.org/2000/svg">
<path d="M12.2214 11.1429V1.05263C12.2214 0.471332 11.6874 0 11.0289 0C10.3703 0 9.83637 0.471332 9.83637 1.05263V11.1429L5.90962 7.67669C5.44379 7.26574 4.6889 7.26574 4.22307 7.67669C3.75751 8.08787 3.75751 8.75423 4.22307 9.16541L11.0289 15.1729L17.8347 9.16541C18.3003 8.75423 18.3003 8.08788 17.8347 7.67669C17.3689 7.26574 16.614 7.26574 16.1482 7.67669L12.2214 11.1429Z" fill="#353532"/>
<path d="M1.66773 13.6842C2.32627 13.6842 2.86024 14.1555 2.86024 14.7368V16.421C2.86024 17.2349 3.6077 17.8947 4.52975 17.8947H17.8858C18.8079 17.8947 19.5554 17.2349 19.5554 16.421V14.7368C19.5554 14.1555 20.0893 13.6842 20.7479 13.6842C21.4064 13.6842 21.9404 14.1555 21.9404 14.7368V16.421C21.9404 18.3978 20.1252 20 17.8858 20H4.52975C2.29063 20 0.47522 18.3978 0.47522 16.421V14.7368C0.47522 14.1555 1.00918 13.6842 1.66773 13.6842Z" fill="#353532"/>
</svg>
