<svg width="20" height="20" viewBox="0 0 20 20" fill="none" xmlns="http://www.w3.org/2000/svg">
<path fill-rule="evenodd" clip-rule="evenodd" d="M14.9998 10.9999C14.9998 10.4477 15.4476 9.99992 15.9998 9.99992C16.552 9.99992 16.9998 10.4477 16.9998 10.9999V16.9998C16.9998 18.6567 15.6567 19.9998 13.9998 19.9998H2.99997C1.34307 19.9998 0 18.6567 0 16.9998V5.99997C0 4.34307 1.34307 3 2.99997 3H8.9999C9.55212 3 9.99988 3.44776 9.99988 3.99999C9.99988 4.55222 9.55212 4.99998 8.9999 4.99998H2.99997C2.44774 4.99998 1.99998 5.44774 1.99998 5.99997V16.9998C1.99998 17.5521 2.44774 17.9998 2.99997 17.9998H13.9998C14.5521 17.9998 14.9998 17.5521 14.9998 16.9998V10.9999Z" fill="#D9D7D0"/>
<path fill-rule="evenodd" clip-rule="evenodd" d="M17.9998 1.99998H12.9999C12.4476 1.99998 11.9999 1.55222 11.9999 0.999989C11.9999 0.447761 12.4476 0 12.9999 0H18.9998C19.552 0 19.9998 0.447761 19.9998 0.999989V6.99992C19.9998 7.55215 19.552 7.99991 18.9998 7.99991C18.4476 7.99991 17.9998 7.55215 17.9998 6.99992V1.99998Z" fill="#D9D7D0"/>
<path fill-rule="evenodd" clip-rule="evenodd" d="M8.70719 12.7072C8.31657 13.0976 7.68354 13.0976 7.29292 12.7072C6.90252 12.3166 6.90252 11.6835 7.29292 11.2929L18.2928 0.293041C18.6834 -0.0973548 19.3164 -0.0973548 19.7071 0.293041C20.0975 0.683659 20.0975 1.31669 19.7071 1.70731L8.70719 12.7072Z" fill="#D9D7D0"/>
</svg>
