<svg width="30" height="30" viewBox="0 0 30 30" fill="none" xmlns="http://www.w3.org/2000/svg">
<path d="M28.0757 13.2539L16.746 1.92417C16.2656 1.44136 15.6328 1.19995 15 1.19995C14.3671 1.19995 13.7343 1.44136 13.2539 1.92417L11.0132 4.16479L13.7859 6.93745C14.707 6.39605 15.907 6.51323 16.6968 7.30308C17.4867 8.09292 17.6015 9.29292 17.0601 10.2117L19.7859 12.9375C20.707 12.396 21.907 12.5132 22.6968 13.3031C23.6343 14.2406 23.6343 15.7593 22.6968 16.6968C21.7593 17.6343 20.2406 17.6343 19.3031 16.6968C18.5132 15.907 18.396 14.707 18.9375 13.7859L16.2117 11.0601C16.0171 11.175 15.8132 11.2593 15.6 11.3132V18.6843C16.6335 18.9515 17.4 19.882 17.4 21C17.4 22.3265 16.3265 23.4 15 23.4C13.6734 23.4 12.6 22.3265 12.6 21C12.6 19.882 13.3664 18.9515 14.4 18.6843V11.3132C13.9992 11.2101 13.6171 11.0109 13.3031 10.6968C12.5132 9.90698 12.3984 8.70698 12.9398 7.78823L10.1648 5.01323L1.92417 13.2539C0.958545 14.2171 0.958545 15.7828 1.92417 16.746L13.2539 28.0757C13.7343 28.5585 14.3671 28.8 15 28.8C15.6328 28.8 16.2656 28.5585 16.746 28.0757L28.0757 16.746C29.0414 15.7828 29.0414 14.2171 28.0757 13.2539Z" fill="#353532"/>
</svg>
