<svg width="35" height="35" viewBox="0 0 35 35" fill="none" xmlns="http://www.w3.org/2000/svg">
<path d="M6.99996 4.66675C5.71079 4.66675 4.66663 5.71091 4.66663 7.00008V28.0001C4.66663 29.2892 5.71079 30.3334 6.99996 30.3334H28C29.2891 30.3334 30.3333 29.2892 30.3333 28.0001V7.00008C30.3333 5.71091 29.2891 4.66675 28 4.66675H6.99996ZM22.9368 10.7895C23.6625 10.7895 24.1582 11.2521 24.1582 11.8832C24.1582 12.5144 23.6625 12.977 22.9368 12.977C22.2193 12.977 21.7177 12.5144 21.7177 11.8832C21.7177 11.2521 22.2193 10.7895 22.9368 10.7895ZM13.7584 11.6121H16.0712L20.1614 23.1215H17.9534L16.9804 20.1798H12.7467L11.7555 23.1215H9.67509L13.7584 11.6121ZM14.802 13.8041L13.2252 18.5505H16.5019L14.9388 13.8041H14.802ZM21.957 14.3966H23.9257V23.1215H21.957V14.3966Z" fill="#353532"/>
</svg>
