<svg width="1296" height="5736" viewBox="0 0 1296 5736" fill="none" xmlns="http://www.w3.org/2000/svg">
<line x1="1245" y1="2480" x2="1245" y2="3381" stroke="#353532" stroke-width="6"/>
<line x1="1231" y1="2494" x2="1231" y2="3369" stroke="#353532" stroke-width="6"/>
<line x1="1258" y1="2465" x2="1258" y2="3398" stroke="#353532" stroke-width="6"/>
<line x1="3" y1="3396" x2="3.00007" y2="5080" stroke="#353532" stroke-width="6"/>
<line x1="17" y1="3416" x2="17.0001" y2="5067" stroke="#353532" stroke-width="6"/>
<line x1="31" y1="3424" x2="31" y2="5054" stroke="#353532" stroke-width="6"/>
<path d="M38 612.056C23 612.056 22 610.056 22 630.056" stroke="#353532" stroke-width="6"/>
<path d="M24 598.056C9 598.056 8 596.056 8 616.056" stroke="#353532" stroke-width="6"/>
<path d="M51 626.056C36 626.056 35 624.056 35 644.056" stroke="#353532" stroke-width="6"/>
<path d="M1072 612C1087 612 1088 614 1088 594" stroke="#353532" stroke-width="6"/>
<path d="M1057 598C1072 598 1073 600 1073 580" stroke="#353532" stroke-width="6"/>
<path d="M1086 626C1101 626 1102 628 1102 608" stroke="#353532" stroke-width="6"/>
<line x1="1088" y1="-1.31134e-07" x2="1088" y2="596" stroke="#353532" stroke-width="6"/>
<line x1="1073" y1="-1.31134e-07" x2="1073" y2="580" stroke="#353532" stroke-width="6"/>
<line x1="1102" y1="1.31134e-07" x2="1102" y2="615" stroke="#353532" stroke-width="6"/>
<line x1="35" y1="612" x2="1073" y2="612" stroke="#353532" stroke-width="6"/>
<line x1="20" y1="598" x2="1061" y2="598" stroke="#353532" stroke-width="6"/>
<line x1="48" y1="626" x2="1088" y2="626" stroke="#353532" stroke-width="6"/>
<line x1="22" y1="626" x2="22.0001" y2="2456" stroke="#353532" stroke-width="6"/>
<line x1="8" y1="615" x2="8.00008" y2="2467" stroke="#353532" stroke-width="6"/>
<line x1="35" y1="644" x2="35.0001" y2="2441" stroke="#353532" stroke-width="6"/>
<line x1="32" y1="2464" x2="1229" y2="2464" stroke="#353532" stroke-width="6"/>
<line x1="22" y1="2478" x2="1213" y2="2478" stroke="#353532" stroke-width="6"/>
<line x1="52" y1="2450" x2="1247" y2="2450" stroke="#353532" stroke-width="6"/>
<line x1="1220" y1="3384" x2="19" y2="3384" stroke="#353532" stroke-width="6"/>
<line x1="1229" y1="3398" x2="33" y2="3398" stroke="#353532" stroke-width="6"/>
<line x1="1245" y1="3411" x2="45" y2="3411" stroke="#353532" stroke-width="6"/>
<line x1="21" y1="5096" x2="1248" y2="5096" stroke="#353532" stroke-width="6"/>
<line x1="49" y1="5070" x2="1278" y2="5070" stroke="#353532" stroke-width="6"/>
<line x1="35" y1="5083" x2="1263" y2="5083" stroke="#353532" stroke-width="6"/>
<line x1="1266" y1="5103" x2="1266" y2="5736" stroke="#353532" stroke-width="6"/>
<line x1="1279" y1="5096" x2="1279" y2="5736" stroke="#353532" stroke-width="6"/>
<line x1="1292" y1="5078" x2="1292" y2="5736" stroke="#353532" stroke-width="6"/>
<path d="M35.0556 2434C35.0556 2449 33.0556 2450 53.0556 2450" stroke="#353532" stroke-width="6"/>
<path d="M1258 2466C1258 2451 1260 2450 1240 2450" stroke="#353532" stroke-width="6"/>
<path d="M1245 2480C1245 2465 1247 2464 1227 2464" stroke="#353532" stroke-width="6"/>
<path d="M1231 2494C1231 2479 1233 2478 1213 2478" stroke="#353532" stroke-width="6"/>
<path d="M1215 3384C1230 3384 1231 3386 1231 3366" stroke="#353532" stroke-width="6"/>
<path d="M1229 3398C1244 3398 1245 3400 1245 3380" stroke="#353532" stroke-width="6"/>
<path d="M1242 3411C1257 3411 1258 3413 1258 3393" stroke="#353532" stroke-width="6"/>
<path d="M19 3384.06C4 3384.06 3 3382.06 3 3402.06" stroke="#353532" stroke-width="6"/>
<path d="M33 3398.06C18 3398.06 17 3396.06 17 3416.06" stroke="#353532" stroke-width="6"/>
<path d="M47 3411.06C32 3411.06 31 3409.06 31 3429.06" stroke="#353532" stroke-width="6"/>
<path d="M22.0556 2448C22.0556 2463 20.0556 2464 40.0556 2464" stroke="#353532" stroke-width="6"/>
<path d="M8.05556 2462C8.05556 2477 6.05556 2478 26.0556 2478" stroke="#353532" stroke-width="6"/>
<path d="M31.0556 5054C31.0556 5069 29.0556 5070 49.0556 5070" stroke="#353532" stroke-width="6"/>
<path d="M17.0556 5067C17.0556 5082 15.0556 5083 35.0556 5083" stroke="#353532" stroke-width="6"/>
<path d="M3.05556 5080C3.05556 5095 1.05556 5096 21.0556 5096" stroke="#353532" stroke-width="6"/>
<path d="M1266 5112C1266 5097 1268 5096 1248 5096" stroke="#353532" stroke-width="6"/>
<path d="M1279 5099C1279 5084 1281 5083 1261 5083" stroke="#353532" stroke-width="6"/>
<path d="M1292 5086C1292 5071 1294 5070 1274 5070" stroke="#353532" stroke-width="6"/>
</svg>
