<svg width="25" height="25" viewBox="0 0 25 25" fill="none" xmlns="http://www.w3.org/2000/svg">
<path d="M1.50347 2.94393C1.50097 2.96543 1.49947 2.98793 1.49997 3.01043V21.6154L5.84797 12.1194L1.50347 2.94393ZM1.96547 23.0004C2.11297 23.0224 2.57497 23.0819 3.22397 23.0819C4.39197 23.0819 6.15897 22.8879 7.75747 21.9284C7.91647 21.8334 8.00997 21.6574 7.99897 21.4719L7.69647 16.0224L6.40697 13.2994L1.96547 23.0004ZM8.45797 2.29993C8.37197 2.10393 8.17397 1.98043 7.95847 2.00193L2.38297 2.46643L10.1375 18.8434C10.231 18.9414 10.361 18.9999 10.5 18.9999H15C15.044 18.9999 15.0875 18.9934 15.129 18.9824C15.1405 18.9794 15.1505 18.9734 15.162 18.9694C15.166 18.9679 15.1695 18.9659 15.1735 18.9644L15.3465 18.6109L8.99947 3.53793L8.45797 2.29993ZM23.111 2.52243C23.08 2.51543 23.0505 2.50543 23.02 2.50393C23.013 2.50343 23.007 2.49993 23 2.49993H16.5C16.299 2.49993 16.117 2.62043 16.039 2.80593L12.908 10.2424L15.9295 17.4189L23.2065 2.54893C23.1765 2.53593 23.1435 2.52993 23.111 2.52243ZM17 17.5069V21.4999C17 21.6669 17.0835 21.8229 17.2225 21.9159L18.437 22.7254C19.316 19.2709 21.3505 11.2044 22.3985 6.47543L17 17.5069ZM19.3995 22.9999H23C23.2765 22.9999 23.5 22.7764 23.5 22.4999V6.12343C22.484 10.8134 20.314 19.4099 19.3995 22.9999Z" fill="#353532"/>
</svg>
