<svg width="35" height="35" viewBox="0 0 35 35" fill="none" xmlns="http://www.w3.org/2000/svg">
<path d="M6.99996 4.66675C5.71079 4.66675 4.66663 5.71091 4.66663 7.00008V28.0001C4.66663 29.2892 5.71079 30.3334 6.99996 30.3334H28C29.2891 30.3334 30.3333 29.2892 30.3333 28.0001V7.00008C30.3333 5.71091 29.2891 4.66675 28 4.66675H6.99996ZM12.1497 11.8149H14.4625L18.5527 23.3243H16.3447L15.3717 20.3803H11.1357L10.1468 23.3243H8.06637L12.1497 11.8149ZM13.1933 14.0092L11.6142 18.7533H14.8932L13.33 14.0092H13.1933ZM23.5133 14.4239C26.0018 14.4239 27.4941 16.0741 27.4941 18.8263V19.4643H21.401V19.5668C21.4488 21.0181 22.2854 21.9275 23.5862 21.9275C24.5662 21.9275 25.2452 21.5689 25.5322 20.9226H27.4052C27.0319 22.5104 25.5861 23.4998 23.5293 23.4998C20.9614 23.4998 19.414 21.7996 19.414 18.9926C19.414 16.1856 20.9863 14.4239 23.5133 14.4239ZM23.5065 15.9916C22.3258 15.9916 21.4965 16.8379 21.4078 18.113H25.5162C25.4754 16.8215 24.693 15.9916 23.5065 15.9916Z" fill="#353532"/>
</svg>
