<svg width="30" height="30" viewBox="0 0 30 30" fill="none" xmlns="http://www.w3.org/2000/svg">
<path d="M3.00016 0.333008C1.52683 0.333008 0.333496 1.52634 0.333496 2.99967V26.9997C0.333496 28.473 1.52683 29.6663 3.00016 29.6663H27.0002C28.4735 29.6663 29.6668 28.473 29.6668 26.9997V2.99967C29.6668 1.52634 28.4735 0.333008 27.0002 0.333008H3.00016ZM8.88558 8.50228H11.5288L16.2033 21.6559H13.6798L12.5679 18.2913H7.72672L6.59652 21.6559H4.21891L8.88558 8.50228ZM10.0783 11.0101L8.2736 16.432H12.021L10.2345 11.0101H10.0783ZM21.8726 11.484C24.7166 11.484 26.422 13.37 26.422 16.5153V17.2445H19.4585V17.3617C19.5132 19.0203 20.4692 20.0596 21.9559 20.0596C23.0759 20.0596 23.8518 19.6498 24.1798 18.9111H26.3205C25.8938 20.7258 24.2415 21.8564 21.8908 21.8564C18.9561 21.8564 17.1877 19.9134 17.1877 16.7054C17.1877 13.4974 18.9846 11.484 21.8726 11.484ZM21.8647 13.2757C20.5154 13.2757 19.5676 14.2429 19.4663 15.7002H24.1616C24.115 14.2242 23.2207 13.2757 21.8647 13.2757Z" fill="#353532"/>
</svg>
