<svg width="28" height="28" viewBox="0 0 28 28" fill="none" xmlns="http://www.w3.org/2000/svg">
<path d="M13.9579 0.201179C13.8919 0.201479 13.8255 0.212391 13.7622 0.233991L1.20318 4.60508C0.936781 4.69748 0.769943 4.96356 0.804743 5.24376L2.7899 21.5176C2.8133 21.7102 2.9271 21.8799 3.0981 21.9723L13.6872 27.7274C13.776 27.776 13.8747 27.8 13.9731 27.8C14.0721 27.8 14.172 27.7754 14.2614 27.7262L24.9044 21.8926C25.0736 21.7996 25.1886 21.6305 25.2114 21.4391L27.1954 5.16641C27.2302 4.88501 27.0616 4.6166 26.7922 4.5254L14.1524 0.231647C14.0894 0.210647 14.0238 0.200879 13.9579 0.201179ZM14.0001 3.20001L21.8001 20H19.1376L17.4688 16.4047H10.5313L8.86256 20H6.20006L14.0001 3.20001ZM14.0001 8.90001L11.6481 14H16.352L14.0001 8.90001Z" fill="#353532"/>
</svg>
