<svg width="30" height="30" viewBox="0 0 30 30" fill="none" xmlns="http://www.w3.org/2000/svg">
<path d="M14.9579 1.20118C14.8919 1.20148 14.8255 1.21239 14.7622 1.23399L2.20318 5.60508C1.93678 5.69748 1.76994 5.96356 1.80474 6.24376L3.7899 22.5176C3.8133 22.7102 3.9271 22.8799 4.0981 22.9723L14.6872 28.7274C14.776 28.776 14.8747 28.8 14.9731 28.8C15.0721 28.8 15.172 28.7754 15.2614 28.7262L25.9044 22.8926C26.0736 22.7996 26.1886 22.6305 26.2114 22.4391L28.1954 6.16641C28.2302 5.88501 28.0616 5.6166 27.7922 5.5254L15.1524 1.23165C15.0894 1.21065 15.0238 1.20088 14.9579 1.20118ZM15.0001 4.20001L22.8001 21H20.1376L18.4688 17.4047H11.5313L9.86256 21H7.20006L15.0001 4.20001ZM15.0001 9.90001L12.6481 15H17.352L15.0001 9.90001Z" fill="#353532"/>
</svg>
