<svg width="40" height="40" viewBox="0 0 40 40" fill="none" xmlns="http://www.w3.org/2000/svg">
<rect width="40" height="40" rx="5" fill="#FFFDF6"/>
<g clip-path="url(#clip0_151_1171)">
<path d="M31.6667 14.1667H23.5V11.8334H31.6667V14.1667ZM33.6803 25.8334C33.1647 27.3465 31.3132 29.3334 27.7292 29.3334C24.1428 29.3334 21.2378 27.3162 21.2378 22.7125C21.2378 18.1509 23.9503 15.8059 27.6148 15.8059C31.2105 15.8059 33.4062 17.8849 33.8857 20.9695C33.9767 21.5599 34.0128 22.3555 33.9965 23.4662H24.6317C24.7833 27.2124 28.6952 27.3302 29.9843 25.8334H33.6803ZM24.7133 21.1667H30.5058C30.3833 19.3619 29.1805 18.5779 27.616 18.5779C25.9057 18.5779 24.9595 19.4739 24.7133 21.1667ZM13.5437 29.3194H6V11.8579H14.1118C20.5005 11.9524 20.6218 18.2092 17.2852 19.9149C21.323 21.3849 21.4583 29.3194 13.5437 29.3194ZM9.5 18.8334H13.6813C16.6073 18.8334 17.0717 15.3334 13.3173 15.3334H9.5V18.8334ZM13.4562 22.3334H9.5V25.852H13.3978C16.962 25.852 16.7438 22.3334 13.4562 22.3334Z" fill="#DD3838"/>
</g>
<defs>
<clipPath id="clip0_151_1171">
<rect width="28" height="28" fill="white" transform="translate(6 6)"/>
</clipPath>
</defs>
</svg>
