<svg width="28" height="24" viewBox="0 0 28 24" fill="none" xmlns="http://www.w3.org/2000/svg">
<path d="M14.4699 0.0113797C14.3528 0.000992208 14.234 0.00112346 14.1148 0.0137235C13.6366 0.0659235 13.2078 0.301433 12.9066 0.675833C12.2844 1.44923 12.408 2.58488 13.182 3.20708L15.1624 4.79966H4.97651C3.98411 4.79966 3.17651 5.60726 3.17651 6.59966C3.17651 7.59206 3.98411 8.39966 4.97651 8.39966H9.43784L0.893698 15.3055C0.505498 15.6193 0.263295 16.0656 0.210495 16.5618C0.158295 17.058 0.300992 17.5458 0.614792 17.934C0.928592 18.3222 1.37484 18.5644 1.87104 18.6172C2.36724 18.6694 2.85511 18.5267 3.24331 18.2129L7.39878 14.8543C7.74618 19.6189 12.1783 23.3997 17.5765 23.3997C23.2009 23.3997 27.7765 19.2951 27.7765 14.2497C27.7765 11.1321 26.031 8.26248 23.1042 6.56568L15.4378 0.401614C15.1566 0.175714 14.821 0.0425423 14.4699 0.0113797ZM17.5765 8.99966C20.5537 8.99966 22.9765 11.0181 22.9765 13.4997C22.9765 15.9813 20.5537 17.9997 17.5765 17.9997C14.5993 17.9997 12.1765 15.9813 12.1765 13.4997C12.1765 11.0181 14.5993 8.99966 17.5765 8.99966ZM17.5765 10.1997C16.6217 10.1997 15.7061 10.5157 15.0309 11.0783C14.3558 11.6409 13.9765 12.404 13.9765 13.1997C13.9765 13.9953 14.3558 14.7584 15.0309 15.321C15.7061 15.8836 16.6217 16.1997 17.5765 16.1997C18.5313 16.1997 19.447 15.8836 20.1221 15.321C20.7972 14.7584 21.1765 13.9953 21.1765 13.1997C21.1765 12.404 20.7972 11.6409 20.1221 11.0783C19.447 10.5157 18.5313 10.1997 17.5765 10.1997Z" fill="#353532"/>
</svg>
