<svg width="34" height="34" viewBox="0 0 34 34" fill="none" xmlns="http://www.w3.org/2000/svg">
<path d="M18.3443 33.2506C16.4436 33.2506 15.628 31.9556 15.088 31.0994L11.623 25.6231C11.3511 25.1931 11.2836 24.67 11.438 24.185C11.5918 23.7006 11.9499 23.3119 12.4205 23.1181L24.1761 18.2781C24.1793 18.2769 24.1818 18.2756 24.1849 18.2744C24.8399 18.0163 26.9774 16.9088 26.9774 13.5125C26.9774 10.5256 24.3361 7.30125 20.0693 7.30125C18.403 7.30125 16.1443 8.22187 16.1218 8.23062L8.81363 11.2294C7.02301 11.9669 7.02301 12.5187 7.02301 12.8144C7.03801 13.0081 7.20738 14.1425 8.90926 14.1425C9.06238 14.1425 9.71738 14.0531 10.678 13.6581L17.9324 10.6588C18.9874 10.2256 20.2874 10.3619 21.2499 11.0075C22.1499 11.6106 22.6455 12.575 22.6455 13.7219C22.6455 15.4056 21.548 15.9994 20.4243 16.4619L13.2786 19.4156C11.8043 20.0231 9.97926 20.4156 8.62988 20.4156C3.81988 20.4156 0.192383 17.1481 0.192383 12.8156C0.192383 10.3419 1.23676 6.96312 6.21301 4.91375L13.4136 1.94875C14.8499 1.3575 16.3249 0.75 19.5111 0.75C28.3418 0.75 33.808 7.375 33.808 13.5125C33.808 21.4556 27.8593 24.1744 26.6674 24.6381L20.6524 27.115L21.2518 28.0381C21.6336 28.6437 21.8105 29.2606 21.8105 29.9862C21.8099 32.2287 20.0136 33.2506 18.3443 33.2506ZM24.648 19.4356L12.8968 24.2738C12.7211 24.3456 12.6536 24.4869 12.6286 24.5644C12.6043 24.6413 12.578 24.7944 12.6786 24.9544L16.1455 30.4325C16.6536 31.2388 17.133 32.0006 18.3443 32.0006C18.5711 32.0006 20.5599 31.9438 20.5599 29.9856C20.5599 29.4938 20.4518 29.1125 20.1986 28.7119L19.2849 27.305C19.1605 27.1094 19.1293 26.875 19.1974 26.66C19.2649 26.4438 19.4236 26.27 19.633 26.1825L26.2018 23.4775C27.2724 23.0606 32.5574 20.6419 32.5574 13.5125C32.558 8.86938 28.4111 2 19.5111 2C16.5724 2 15.2736 2.53437 13.8993 3.10062L6.68926 6.06937C2.35301 7.85437 1.44238 10.7231 1.44238 12.815C1.44238 16.435 4.53238 19.165 8.62988 19.165C9.61238 19.165 11.2843 18.885 12.8024 18.26L19.948 15.3063C21.0168 14.8663 21.3955 14.5606 21.3955 13.7219C21.3955 12.8031 20.938 12.3031 20.553 12.0456C19.938 11.6331 19.0761 11.5387 18.408 11.8144L11.1543 14.8138C10.1161 15.2419 9.29551 15.3931 8.90863 15.3931C6.34863 15.3931 5.77238 13.4838 5.77238 12.815C5.77238 11.9819 6.07676 11.005 8.33738 10.0737L15.6455 7.075C15.7461 7.03375 18.1536 6.05125 20.0686 6.05125C25.108 6.05125 28.2268 9.92375 28.2268 13.5125C28.2274 17.6906 25.4943 19.1006 24.648 19.4356Z" fill="#353532"/>
<path d="M31.3063 13.5125C31.3063 19.8312 26.6876 21.95 25.7626 22.3063L19.1626 25.025C18.6001 25.2563 18.1813 25.7188 18.0063 26.2875C17.8251 26.8563 17.9063 27.4687 18.2251 27.9687L19.1563 29.4C19.2688 29.5813 19.3126 29.7312 19.3126 29.9875C19.3126 30.175 19.3126 30.75 18.3438 30.75C17.8938 30.75 17.7376 30.6125 17.2063 29.7688L14.2376 25.075L25.1313 20.5875C27.2188 19.7625 29.4751 17.4688 29.4751 13.5125C29.4751 9.325 25.8813 4.8 20.0688 4.8C17.9438 4.8 15.4501 5.80625 15.1688 5.91875L7.8626 8.91875C5.58135 9.85625 4.5251 11.0937 4.5251 12.8125C4.5251 14.0625 5.59385 16.6438 8.90635 16.6438C9.5876 16.6438 10.6063 16.3938 11.6313 15.9688L19.1545 12.8569C19.4513 12.7338 19.7938 12.8437 19.9638 13.1162C20.1788 13.4612 20.0332 13.9169 19.6576 14.0725L12.3251 17.1062C10.9751 17.6625 9.4626 17.9125 8.63135 17.9125C4.7751 17.9125 2.69385 15.2875 2.69385 12.8125C2.69385 10.325 4.19385 8.45 7.1626 7.225L14.3688 4.2625C15.6876 3.71875 16.8188 3.25 19.5126 3.25C27.5563 3.25 31.3063 9.375 31.3063 13.5125Z" fill="#353532"/>
</svg>
