<svg width="15" height="9" viewBox="0 0 15 9" fill="none" xmlns="http://www.w3.org/2000/svg">
<path d="M0.794287 8.02804C1.01772 7.8046 1.24272 7.57961 1.46617 7.35615C2.00366 6.81866 2.5396 6.28272 3.07554 5.74678C3.72397 5.09835 4.37086 4.45146 5.01929 3.80304C5.57866 3.24366 6.1396 2.68272 6.69897 2.12335C6.97085 1.85148 7.25054 1.58429 7.51617 1.30615C7.5193 1.30146 7.52399 1.29834 7.52711 1.29521H6.8646C7.08803 1.51865 7.31302 1.74364 7.53648 1.9671C8.07242 2.50304 8.60837 3.03898 9.14428 3.5749C9.79271 4.22333 10.4396 4.87021 11.088 5.51864C11.649 6.07958 12.2083 6.63896 12.7693 7.1999C13.0412 7.47177 13.3099 7.74833 13.5865 8.0171C13.5896 8.02022 13.5943 8.02491 13.5974 8.02804C13.7709 8.20147 14.0896 8.21397 14.2599 8.02804C14.4318 7.84054 14.4459 7.54992 14.2599 7.36552C14.0365 7.14208 13.8115 6.91709 13.588 6.69364C13.0521 6.15769 12.5162 5.62175 11.9802 5.08584C11.3318 4.43741 10.6849 3.79052 10.0365 3.14209C9.47713 2.58272 8.91619 2.02178 8.35682 1.46241C8.08494 1.19053 7.81619 0.913977 7.53962 0.645206C7.53649 0.642081 7.53181 0.637393 7.52868 0.634268C7.34899 0.45458 7.04588 0.45458 6.86617 0.634268L0.963025 6.53741C0.691151 6.80929 0.414595 7.07804 0.145823 7.35461L0.134886 7.36555C-0.0385513 7.53899 -0.0510513 7.85775 0.134886 8.02806C0.31926 8.19838 0.609886 8.21244 0.794257 8.02806L0.794287 8.02804Z" fill="#D9D7D0"/>
</svg>
