<svg width="26" height="28" viewBox="0 0 26 28" fill="none" xmlns="http://www.w3.org/2000/svg">
<path d="M24.346 6.20273L14.2421 0.523828C13.4757 0.0949218 12.5241 0.0949218 11.7577 0.523828L1.65381 6.20273C0.880371 6.63633 0.399902 7.44961 0.399902 8.32148V19.6793C0.399902 20.5512 0.880371 21.3645 1.65381 21.798L11.7577 27.477C12.1421 27.6926 12.571 27.8004 12.9999 27.8004C13.4288 27.8004 13.8577 27.6926 14.2421 27.477L24.346 21.798C25.1194 21.3645 25.5999 20.5512 25.5999 19.6793V8.32148C25.5999 7.44961 25.1194 6.63633 24.346 6.20273ZM12.9999 21.2004C9.02959 21.2004 5.7999 17.9707 5.7999 14.0004C5.7999 10.0301 9.02959 6.80039 12.9999 6.80039C15.2687 6.80039 17.364 7.85273 18.7257 9.6457L16.096 11.1668C15.3062 10.302 14.1835 9.80039 12.9999 9.80039C10.6843 9.80039 8.7999 11.6848 8.7999 14.0004C8.7999 16.316 10.6843 18.2004 12.9999 18.2004C14.1835 18.2004 15.3062 17.6988 16.096 16.834L18.7257 18.3551C17.364 20.148 15.2687 21.2004 12.9999 21.2004ZM20.1999 14.6004H18.9999V15.8004H17.7999V14.6004H16.5999V13.4004H17.7999V12.2004H18.9999V13.4004H20.1999V14.6004ZM24.3999 14.6004H23.1999V15.8004H21.9999V14.6004H20.7999V13.4004H21.9999V12.2004H23.1999V13.4004H24.3999V14.6004Z" fill="#353532"/>
</svg>
