<svg width="22" height="24" viewBox="0 0 22 24" fill="none" xmlns="http://www.w3.org/2000/svg">
<path d="M21.428 0.333C21.238 0.121 20.967 0 20.683 0H1.31702C1.03302 0 0.762018 0.121 0.572018 0.333C0.382018 0.545 0.292018 0.828 0.323018 1.11L2.52502 20.933C2.56902 21.336 2.85402 21.673 3.24402 21.784L10.724 23.921C10.814 23.947 10.907 23.96 10.999 23.96C11.091 23.96 11.184 23.947 11.274 23.921L18.754 21.784C19.144 21.673 19.428 21.336 19.473 20.933L21.676 1.11C21.708 0.828 21.618 0.545 21.428 0.333ZM16.516 10.074L16.07 17.359L11.032 19.006L5.99402 17.359L5.80302 13.875H8.35302L8.41702 15.459L11.032 16.346L13.647 15.459L13.838 12.609H8.22602L8.09902 10.075H13.966L14.157 7.541H5.35602L5.16502 5.006H16.835L16.516 10.074Z" fill="#353532"/>
</svg>
