<svg width="30" height="30" viewBox="0 0 30 30" fill="none" xmlns="http://www.w3.org/2000/svg">
<path d="M10 29C7.791 29 6 27.209 6 25C6 22.791 7.791 21 10 21H12.857C13.488 21 14 21.512 14 22.143V25C14 27.209 12.209 29 10 29ZM20 9H17.143C16.512 9 16 8.488 16 7.857V2.143C16 1.512 16.512 1 17.143 1H20C22.209 1 24 2.791 24 5C24 7.209 22.209 9 20 9ZM10 1H12.857C13.488 1 14 1.512 14 2.143V7.857C14 8.488 13.488 9 12.857 9H10C7.791 9 6 7.209 6 5C6 2.791 7.791 1 10 1ZM10 11H12.857C13.488 11 14 11.512 14 12.143V17.857C14 18.488 13.488 19 12.857 19H10C7.791 19 6 17.209 6 15C6 12.791 7.791 11 10 11ZM20 11C18.9391 11 17.9217 11.4214 17.1716 12.1716C16.4214 12.9217 16 13.9391 16 15C16 16.0609 16.4214 17.0783 17.1716 17.8284C17.9217 18.5786 18.9391 19 20 19C21.0609 19 22.0783 18.5786 22.8284 17.8284C23.5786 17.0783 24 16.0609 24 15C24 13.9391 23.5786 12.9217 22.8284 12.1716C22.0783 11.4214 21.0609 11 20 11Z" fill="#353532"/>
</svg>
