<svg width="18" height="28" viewBox="0 0 18 28" fill="none" xmlns="http://www.w3.org/2000/svg">
<path d="M4 28C1.791 28 0 26.209 0 24C0 21.791 1.791 20 4 20H6.857C7.488 20 8 20.512 8 21.143V24C8 26.209 6.209 28 4 28ZM14 8H11.143C10.512 8 10 7.488 10 6.857V1.143C10 0.512 10.512 0 11.143 0H14C16.209 0 18 1.791 18 4C18 6.209 16.209 8 14 8ZM4 0H6.857C7.488 0 8 0.512 8 1.143V6.857C8 7.488 7.488 8 6.857 8H4C1.791 8 0 6.209 0 4C0 1.791 1.791 0 4 0ZM4 10H6.857C7.488 10 8 10.512 8 11.143V16.857C8 17.488 7.488 18 6.857 18H4C1.791 18 0 16.209 0 14C0 11.791 1.791 10 4 10ZM14 10C12.9391 10 11.9217 10.4214 11.1716 11.1716C10.4214 11.9217 10 12.9391 10 14C10 15.0609 10.4214 16.0783 11.1716 16.8284C11.9217 17.5786 12.9391 18 14 18C15.0609 18 16.0783 17.5786 16.8284 16.8284C17.5786 16.0783 18 15.0609 18 14C18 12.9391 17.5786 11.9217 16.8284 11.1716C16.0783 10.4214 15.0609 10 14 10Z" fill="#353532"/>
</svg>
