<svg width="30" height="30" viewBox="0 0 30 30" fill="none" xmlns="http://www.w3.org/2000/svg">
<path d="M27.5 15C27.5 21.9025 21.9025 27.5 15 27.5C8.0975 27.5 2.5 21.9025 2.5 15C2.5 8.0975 8.0975 2.5 15 2.5C21.9025 2.5 27.5 8.0975 27.5 15Z" fill="#FFFDF6"/>
<path d="M15 2.5C8.125 2.5 2.5 8.125 2.5 15C2.5 21.875 8.125 27.5 15 27.5C21.875 27.5 27.5 21.875 27.5 15C27.5 8.125 21.875 2.5 15 2.5ZM8.035 21.965C6.16 20.09 5.17812 17.59 5.17812 15.18L14.91 24.8219C12.41 24.7319 9.91 23.8394 8.035 21.965ZM17.1419 24.555L5.44625 12.8569C6.42812 8.48187 10.3569 5.17812 15 5.17812C18.3038 5.17812 21.16 6.785 22.9463 9.19625L21.6063 10.3562C20.0894 8.30312 17.6781 6.96437 14.9994 6.96437C11.5175 6.96437 8.57062 9.19625 7.40937 12.3213L17.6775 22.5894C20.2675 21.6963 22.2313 19.4644 22.8563 16.7856H18.5713V15H24.8213C24.8213 19.6431 21.5175 23.5712 17.1425 24.5537L17.1419 24.555Z" fill="#353532"/>
</svg>
