<svg width="26" height="26" viewBox="0 0 26 26" fill="none" xmlns="http://www.w3.org/2000/svg">
<path d="M25.5 13C25.5 19.9025 19.9025 25.5 13 25.5C6.0975 25.5 0.5 19.9025 0.5 13C0.5 6.0975 6.0975 0.5 13 0.5C19.9025 0.5 25.5 6.0975 25.5 13Z" fill="#FFFDF6"/>
<path d="M13 0.5C6.125 0.5 0.5 6.125 0.5 13C0.5 19.875 6.125 25.5 13 25.5C19.875 25.5 25.5 19.875 25.5 13C25.5 6.125 19.875 0.5 13 0.5ZM6.035 19.965C4.16 18.09 3.17812 15.59 3.17812 13.18L12.91 22.8219C10.41 22.7319 7.91 21.8394 6.035 19.965ZM15.1419 22.555L3.44625 10.8569C4.42812 6.48187 8.35688 3.17812 13 3.17812C16.3037 3.17812 19.16 4.785 20.9463 7.19625L19.6062 8.35625C18.0894 6.30312 15.6781 4.96437 12.9994 4.96437C9.5175 4.96437 6.57062 7.19625 5.40937 10.3213L15.6775 20.5894C18.2675 19.6963 20.2312 17.4644 20.8562 14.7856H16.5713V13H22.8213C22.8213 17.6431 19.5175 21.5712 15.1425 22.5537L15.1419 22.555Z" fill="#353532"/>
</svg>
