<svg width="28" height="28" viewBox="0 0 28 28" fill="none" xmlns="http://www.w3.org/2000/svg">
<path d="M27.0757 12.2541L15.746 0.924414C15.2656 0.441602 14.6328 0.200195 14 0.200195C13.3671 0.200195 12.7343 0.441602 12.2539 0.924414L10.0132 3.16504L12.7859 5.9377C13.707 5.39629 14.907 5.51348 15.6968 6.30332C16.4867 7.09316 16.6015 8.29316 16.0601 9.21191L18.7859 11.9377C19.707 11.3963 20.907 11.5135 21.6968 12.3033C22.6343 13.2408 22.6343 14.7596 21.6968 15.6971C20.7593 16.6346 19.2406 16.6346 18.3031 15.6971C17.5132 14.9072 17.396 13.7072 17.9375 12.7861L15.2117 10.0604C15.0171 10.1752 14.8132 10.2596 14.6 10.3135V17.6846C15.6335 17.9518 16.4 18.8822 16.4 20.0002C16.4 21.3268 15.3265 22.4002 14 22.4002C12.6734 22.4002 11.6 21.3268 11.6 20.0002C11.6 18.8822 12.3664 17.9518 13.4 17.6846V10.3135C12.9992 10.2104 12.6171 10.0111 12.3031 9.69707C11.5132 8.90723 11.3984 7.70723 11.9398 6.78848L9.16479 4.01348L0.92417 12.2541C-0.0414551 13.2174 -0.0414551 14.783 0.92417 15.7463L12.2539 27.076C12.7343 27.5588 13.3671 27.8002 14 27.8002C14.6328 27.8002 15.2656 27.5588 15.746 27.076L27.0757 15.7463C28.0414 14.783 28.0414 13.2174 27.0757 12.2541Z" fill="#353532"/>
</svg>
