<svg width="22" height="24" viewBox="0 0 22 24" fill="none" xmlns="http://www.w3.org/2000/svg">
<path d="M21.4279 0.333C21.2379 0.121 20.9669 0 20.6829 0H1.3169C1.0329 0 0.761896 0.121 0.571896 0.333C0.381896 0.545 0.291896 0.828 0.322896 1.11L2.5249 20.933C2.5689 21.336 2.8539 21.673 3.2439 21.784L10.7239 23.921C10.8139 23.947 10.9069 23.96 10.9989 23.96C11.0909 23.96 11.1839 23.947 11.2739 23.921L18.7539 21.784C19.1439 21.673 19.4279 21.336 19.4729 20.933L21.6759 1.11C21.7079 0.828 21.6179 0.545 21.4279 0.333ZM16.6289 7.43H7.6989L7.9109 9.972H16.4139L15.7759 17.482L11.0029 19L10.9559 18.985L6.2359 17.48L5.9779 14.42H8.2899L8.3909 15.609L11.0279 16.19L13.6189 15.608L13.8939 12.395H5.8039L5.1779 5H16.8369L16.6289 7.43Z" fill="#353532"/>
</svg>
