<svg width="30" height="30" viewBox="0 0 30 30" fill="none" xmlns="http://www.w3.org/2000/svg">
<path d="M3.00016 0.333008C1.52683 0.333008 0.333496 1.52634 0.333496 2.99967V26.9997C0.333496 28.473 1.52683 29.6663 3.00016 29.6663H27.0002C28.4735 29.6663 29.6668 28.473 29.6668 26.9997V2.99967C29.6668 1.52634 28.4735 0.333008 27.0002 0.333008H3.00016ZM21.2137 7.3304C22.043 7.3304 22.6095 7.85907 22.6095 8.5804C22.6095 9.30174 22.043 9.8304 21.2137 9.8304C20.3937 9.8304 19.8205 9.30174 19.8205 8.5804C19.8205 7.85907 20.3937 7.3304 21.2137 7.3304ZM10.7241 8.27051H13.3673L18.0418 21.4242H15.5184L14.4064 18.0622H9.56787L8.43506 21.4242H6.05745L10.7241 8.27051ZM11.9168 10.7757L10.1147 16.2002H13.8595L12.0731 10.7757H11.9168ZM20.0939 11.4528H22.3439V21.4242H20.0939V11.4528Z" fill="#353532"/>
</svg>
