<svg width="35" height="35" viewBox="0 0 35 35" fill="none" xmlns="http://www.w3.org/2000/svg">
<path d="M6.99996 4.66675C5.71079 4.66675 4.66663 5.71091 4.66663 7.00008V28.0001C4.66663 29.2892 5.71079 30.3334 6.99996 30.3334H28C29.2891 30.3334 30.3333 29.2892 30.3333 28.0001V7.00008C30.3333 5.71091 29.2891 4.66675 28 4.66675H6.99996ZM21.8271 11.3796H23.805V23.477H21.8909V22.0984H21.7542C21.2595 23.0551 20.2548 23.6205 19.0426 23.6205C16.8329 23.6205 15.4537 21.8843 15.4537 19.1088C15.4537 16.3496 16.8411 14.6108 19.0426 14.6108C20.2384 14.6108 21.2295 15.1853 21.6927 16.142H21.8271V11.3796ZM11.1949 11.9698H13.2526V23.477H11.1949V11.9698ZM19.6578 16.2924C18.3103 16.2924 17.4795 17.361 17.4795 19.1156C17.4795 20.8785 18.3022 21.9389 19.6578 21.9389C21.0217 21.9389 21.8499 20.8703 21.8499 19.1156C21.8499 17.3773 21.0135 16.2924 19.6578 16.2924Z" fill="#353532"/>
</svg>
