<svg width="30" height="30" viewBox="0 0 30 30" fill="none" xmlns="http://www.w3.org/2000/svg">
<path d="M2.99967 0.333008C1.52634 0.333008 0.333008 1.52634 0.333008 2.99967V26.9997C0.333008 28.473 1.52634 29.6663 2.99967 29.6663H26.9997C28.473 29.6663 29.6663 28.473 29.6663 26.9997V2.99967C29.6663 1.52634 28.473 0.333008 26.9997 0.333008H2.99967ZM19.945 8.00488H22.2054V21.8304H20.0179V20.2549H19.8617C19.2963 21.3482 18.148 21.9945 16.7627 21.9945C14.2374 21.9945 12.6611 20.0102 12.6611 16.8382C12.6611 13.6849 14.2467 11.6976 16.7627 11.6976C18.1294 11.6976 19.262 12.3543 19.7913 13.4476H19.945V8.00488ZM7.79394 8.67936H10.1455V21.8304H7.79394V8.67936ZM17.4658 13.6195C15.9258 13.6195 14.9762 14.8407 14.9762 16.846C14.9762 18.8607 15.9165 20.0726 17.4658 20.0726C19.0245 20.0726 19.971 18.8514 19.971 16.846C19.971 14.8594 19.0152 13.6195 17.4658 13.6195Z" fill="#353532"/>
</svg>
