<svg width="26" height="26" viewBox="0 0 26 26" fill="none" xmlns="http://www.w3.org/2000/svg">
<path d="M24.0015 0.400024H2.00068C1.11709 0.400024 0.399902 1.11721 0.399902 2.00081V23.9992C0.399902 24.8828 1.11709 25.6 2.00068 25.6H23.9991C24.8827 25.6 25.5999 24.8828 25.5999 24.0016V2.00081C25.5999 1.11721 24.8827 0.400024 24.0015 0.400024ZM14.1999 19.7102C14.1999 22.1078 12.7937 23.2 10.7405 23.2C8.88428 23.2 7.546 21.9555 6.9999 20.8L8.88662 19.6586C9.2499 20.3032 9.80303 20.8 10.5999 20.8C11.3616 20.8 11.7999 20.5024 11.7999 19.3446V11.8H14.1999V19.7102ZM19.4054 23.2C17.2796 23.2 16.0726 22.1289 15.3999 20.8L17.1999 19.6C17.6897 20.4016 18.2241 21.168 19.3538 21.168C20.303 21.168 20.7999 20.6946 20.7999 20.0383C20.7999 19.2555 20.2843 18.9766 19.2413 18.5196L18.6694 18.2735C17.0171 17.5703 15.9179 16.6891 15.9179 14.8235C15.9179 13.1078 17.228 11.8 19.2718 11.8C20.7272 11.8 21.7726 12.3063 22.5272 13.6328L20.746 14.7789C20.3522 14.0735 19.9304 13.7969 19.2718 13.7969C18.6015 13.7969 18.1772 14.2235 18.1772 14.7789C18.1772 15.4656 18.6015 15.7422 19.5835 16.1688L20.1554 16.4149C22.103 17.2469 23.1999 18.0977 23.1999 20.0102C23.1999 22.0703 21.5804 23.2 19.4054 23.2Z" fill="#353532"/>
</svg>
