<svg width="30" height="30" viewBox="0 0 30 30" fill="none" xmlns="http://www.w3.org/2000/svg">
<path d="M26.0016 2.3999H4.00081C3.11721 2.3999 2.40002 3.11709 2.40002 4.00068V25.9991C2.40002 26.8827 3.11721 27.5999 4.00081 27.5999H25.9992C26.8828 27.5999 27.6 26.8827 27.6 26.0015V4.00068C27.6 3.11709 26.8828 2.3999 26.0016 2.3999ZM16.2 21.7101C16.2 24.1077 14.7938 25.1999 12.7407 25.1999C10.8844 25.1999 9.54612 23.9554 9.00002 22.7999L10.8867 21.6585C11.25 22.303 11.8032 22.7999 12.6 22.7999C13.3617 22.7999 13.8 22.5022 13.8 21.3444V13.7999H16.2V21.7101ZM21.4055 25.1999C19.2797 25.1999 18.0727 24.1288 17.4 22.7999L19.2 21.5999C19.6899 22.4015 20.2242 23.1679 21.3539 23.1679C22.3032 23.1679 22.8 22.6944 22.8 22.0382C22.8 21.2554 22.2844 20.9765 21.2414 20.5194L20.6696 20.2733C19.0172 19.5702 17.918 18.689 17.918 16.8233C17.918 15.1077 19.2281 13.7999 21.2719 13.7999C22.7274 13.7999 23.7727 14.3062 24.5274 15.6327L22.7461 16.7788C22.3524 16.0733 21.9305 15.7968 21.2719 15.7968C20.6016 15.7968 20.1774 16.2233 20.1774 16.7788C20.1774 17.4655 20.6016 17.7421 21.5836 18.1687L22.1555 18.4147C24.1032 19.2468 25.2 20.0976 25.2 22.0101C25.2 24.0702 23.5805 25.1999 21.4055 25.1999Z" fill="#353532"/>
</svg>
