<svg width="40" height="41" viewBox="0 0 40 41" fill="none" xmlns="http://www.w3.org/2000/svg">
<path d="M0 2.88366C0 1.29156 1.32337 0.000125885 2.95592 0.000125885H37.0441C38.6766 0.000125885 40 1.29156 40 2.88366V37.3704C40 38.963 38.6766 40.2539 37.0441 40.2539H2.95592C1.32337 40.2539 0 38.963 0 37.3704V2.88366Z" fill="#FFFDF6"/>
<path fill-rule="evenodd" clip-rule="evenodd" d="M12.1252 33.6967V15.5198H6.08359V33.6967H12.1252ZM9.10438 13.0381C11.2112 13.0381 12.5226 11.6423 12.5226 9.89799C12.4833 8.1144 11.2112 6.75735 9.14435 6.75735C7.07769 6.75735 5.72644 8.1144 5.72644 9.89799C5.72644 11.6423 7.03749 13.0381 9.065 13.0381H9.10438Z" fill="#DD3838"/>
<path fill-rule="evenodd" clip-rule="evenodd" d="M15.4683 33.6967H21.5098V23.5459C21.5098 23.0027 21.5491 22.46 21.7086 22.0716C22.1454 20.9862 23.1395 19.8621 24.8085 19.8621C26.9947 19.8621 27.8692 21.5289 27.8692 23.9725V33.6967H33.9103V23.2743C33.9103 17.6912 30.9297 15.0933 26.9548 15.0933C23.6955 15.0933 22.2646 16.9151 21.4697 18.1559H21.51V15.5198H15.4684C15.5477 17.2254 15.4683 33.6967 15.4683 33.6967Z" fill="#DD3838"/>
</svg>
