<svg width="40" height="40" viewBox="0 0 40 40" fill="none" xmlns="http://www.w3.org/2000/svg">
<circle cx="20" cy="20" r="20" fill="#FFFDF6"/>
<path d="M9.84624 12C9.60436 12 9.37492 12.0509 9.16349 12.1346L19.6058 21.2593C20.0572 21.6536 20.538 21.654 20.9904 21.2593L31.4519 12.1346C31.2407 12.0507 31.0111 12 30.7692 12H9.84608H9.84624ZM8.01932 13.5865C8.00751 13.6705 8 13.7587 8 13.846V26.1537C8 27.1764 8.8233 28 9.84626 28H30.7694C31.7921 28 32.6156 27.1767 32.6156 26.1537V13.846C32.6156 13.7587 32.6081 13.6705 32.5963 13.5863L22.2018 22.6539C21.1173 23.5998 19.4786 23.6013 18.394 22.6539L8.01931 13.5863L8.01932 13.5865Z" fill="#DD3838"/>
</svg>
