<svg width="23" height="22" viewBox="0 0 23 22" fill="none" xmlns="http://www.w3.org/2000/svg">
<path d="M0.503474 0.944421C0.500974 0.965921 0.499474 0.988421 0.499974 1.01092V19.6159L4.84797 10.1199L0.503474 0.944421ZM0.965474 21.0009C1.11297 21.0229 1.57497 21.0824 2.22397 21.0824C3.39197 21.0824 5.15897 20.8884 6.75747 19.9289C6.91647 19.8339 7.00997 19.6579 6.99897 19.4724L6.69647 14.0229L5.40697 11.2999L0.965474 21.0009ZM7.45797 0.300421C7.37197 0.104421 7.17397 -0.0190787 6.95847 0.00242135L1.38297 0.466921L9.13747 16.8439C9.23097 16.9419 9.36097 17.0004 9.49997 17.0004H14C14.044 17.0004 14.0875 16.9939 14.129 16.9829C14.1405 16.9799 14.1505 16.9739 14.162 16.9699C14.166 16.9684 14.1695 16.9664 14.1735 16.9649L14.3465 16.6114L7.99947 1.53842L7.45797 0.300421ZM22.111 0.522921C22.08 0.515921 22.0505 0.505921 22.02 0.504421C22.013 0.503921 22.007 0.500421 22 0.500421H15.5C15.299 0.500421 15.117 0.620921 15.039 0.806421L11.908 8.24292L14.9295 15.4194L22.2065 0.549421C22.1765 0.536421 22.1435 0.530421 22.111 0.522921ZM16 15.5074V19.5004C16 19.6674 16.0835 19.8234 16.2225 19.9164L17.437 20.7259C18.316 17.2714 20.3505 9.20492 21.3985 4.47592L16 15.5074ZM18.3995 21.0004H22C22.2765 21.0004 22.5 20.7769 22.5 20.5004V4.12392C21.484 8.81392 19.314 17.4104 18.3995 21.0004Z" fill="#353532"/>
</svg>
