<svg width="15" height="8" viewBox="0 0 15 8" fill="none" xmlns="http://www.w3.org/2000/svg">
<path d="M13.5999 0.134806C13.3764 0.358243 13.1514 0.583235 12.928 0.806692C12.3905 1.34418 11.8546 1.88012 11.3186 2.41606C10.6702 3.06449 10.0233 3.71138 9.37488 4.35981C8.81551 4.91918 8.25456 5.48012 7.69519 6.03949C7.42332 6.31137 7.14362 6.57855 6.87799 6.85669C6.87487 6.86138 6.87018 6.86451 6.86705 6.86763H7.52957C7.30613 6.64419 7.08114 6.4192 6.85768 6.19574C6.32174 5.6598 5.7858 5.12386 5.24988 4.58794C4.60145 3.93952 3.95457 3.29263 3.30614 2.6442C2.7452 2.08326 2.18583 1.52389 1.62488 0.962943C1.35301 0.691069 1.08425 0.414515 0.807683 0.145744C0.804558 0.142618 0.79987 0.137931 0.796745 0.134806C0.623308 -0.038631 0.304545 -0.0511311 0.134231 0.134806C-0.0376432 0.322306 -0.0517061 0.612921 0.134231 0.797321C0.357668 1.02076 0.58266 1.24575 0.806117 1.46921C1.34206 2.00515 1.878 2.54109 2.41392 3.07701C3.06235 3.72543 3.70923 4.37232 4.35766 5.02075C4.91703 5.58012 5.47797 6.14106 6.03735 6.70044C6.30922 6.97231 6.57797 7.24886 6.85455 7.51764C6.85767 7.52076 6.86236 7.52545 6.86548 7.52857C7.04517 7.70826 7.34828 7.70826 7.528 7.52857L13.4311 1.62543C13.703 1.35356 13.9796 1.0848 14.2483 0.808229L14.2593 0.797292C14.4327 0.623855 14.4452 0.305092 14.2593 0.134777C14.0749 -0.0355341 13.7843 -0.049597 13.5999 0.134777L13.5999 0.134806Z" fill="#D9D7D0"/>
</svg>
