<svg width="27" height="27" viewBox="0 0 27 27" fill="none" xmlns="http://www.w3.org/2000/svg">
<path d="M2.99996 0.666992C1.71079 0.666992 0.666626 1.71116 0.666626 3.00033V24.0003C0.666626 25.2895 1.71079 26.3337 2.99996 26.3337H24C25.2891 26.3337 26.3333 25.2895 26.3333 24.0003V3.00033C26.3333 1.71116 25.2891 0.666992 24 0.666992H2.99996ZM5.33329 7.65788H9.97489C12.2721 7.65788 13.844 9.2293 13.844 11.5498C13.844 13.8306 12.2147 15.3939 9.88603 15.3939H7.39091V19.1673H5.33329V7.65788ZM7.39091 9.38053V13.6872H9.42574C10.8934 13.6872 11.7545 12.9218 11.7545 11.5498C11.7545 10.1393 10.9154 9.38053 9.43258 9.38053H7.39091ZM18.4082 10.2646C20.4813 10.2646 21.7829 11.1822 21.9264 12.7689H20.0693C19.9258 12.1552 19.3424 11.764 18.4173 11.764C17.5166 11.764 16.8382 12.1958 16.8382 12.8258C16.8382 13.3205 17.2528 13.6233 18.1302 13.8216L19.6683 14.1725C21.3354 14.547 22.1087 15.2658 22.1087 16.5492C22.1087 18.2257 20.5692 19.3428 18.3922 19.3428C16.2152 19.3428 14.8434 18.4001 14.6917 16.8135H16.6468C16.8381 17.4598 17.4507 17.8434 18.4401 17.8434C19.4364 17.8434 20.1308 17.4051 20.1308 16.7588C20.1308 16.2641 19.7572 15.9519 18.9277 15.7676L17.3805 15.4098C15.7052 15.0272 14.9173 14.2535 14.9173 12.9375C14.9173 11.3578 16.3502 10.2646 18.4082 10.2646Z" fill="#353532"/>
</svg>
