<svg width="35" height="35" viewBox="0 0 35 35" fill="none" xmlns="http://www.w3.org/2000/svg">
<path d="M6.99996 4.66675C5.71079 4.66675 4.66663 5.71091 4.66663 7.00008V28.0001C4.66663 29.2892 5.71079 30.3334 6.99996 30.3334H28C29.2891 30.3334 30.3333 29.2892 30.3333 28.0001V7.00008C30.3333 5.71091 29.2891 4.66675 28 4.66675H6.99996ZM9.33329 11.6576H13.9749C16.2721 11.6576 17.844 13.2291 17.844 15.5496C17.844 17.8304 16.2147 19.3936 13.886 19.3936H11.3909V23.1671H9.33329V11.6576ZM11.3909 13.3803V17.6869H13.4257C14.8934 17.6869 15.7545 16.9216 15.7545 15.5496C15.7545 14.1391 14.9154 13.3803 13.4326 13.3803H11.3909ZM22.4082 14.2644C24.4813 14.2644 25.7829 15.182 25.9264 16.7686H24.0693C23.9258 16.155 23.3424 15.7638 22.4173 15.7638C21.5166 15.7638 20.8382 16.1956 20.8382 16.8256C20.8382 17.3203 21.2528 17.623 22.1302 17.8214L23.6683 18.1723C25.3354 18.5468 26.1087 19.2656 26.1087 20.5489C26.1087 22.2254 24.5692 23.3425 22.3922 23.3425C20.2152 23.3425 18.8434 22.3999 18.6917 20.8132H20.6468C20.8381 21.4596 21.4507 21.8432 22.4401 21.8432C23.4364 21.8432 24.1308 21.4049 24.1308 20.7585C24.1308 20.2639 23.7572 19.9517 22.9277 19.7673L21.3805 19.4096C19.7052 19.0269 18.9173 18.2533 18.9173 16.9373C18.9173 15.3576 20.3502 14.2644 22.4082 14.2644Z" fill="#353532"/>
</svg>
