<svg width="30" height="30" viewBox="0 0 30 30" fill="none" xmlns="http://www.w3.org/2000/svg">
<path d="M26.6667 0H3.33333C1.5 0 0 1.5 0 3.33333V26.6667C0 28.5 1.5 30 3.33333 30H26.6667C28.5 30 30 28.5 30 26.6667V3.33333C30 1.5 28.5 0 26.6667 0ZM11.3167 10.5033H9.45667V14.69H11.3167C12.5567 14.69 12.8667 13.76 12.8667 12.675C12.8683 11.5883 12.4033 10.5033 11.3167 10.5033ZM11.3167 16.86H9.45667V21.6667H6.66667V8.33333H11.1633C15.04 8.33333 15.505 11.9 15.505 12.675C15.5033 15.775 13.3333 16.86 11.3167 16.86ZM23.0583 14.3333C22.935 14.32 22.27 14.255 22.14 14.255C21.0783 14.255 20.7367 14.925 20.6067 15.2517V21.6667H17.8333V11.6667H20.44L20.5183 12.81C20.7267 12.3867 21.2833 11.4717 22.325 11.4717C22.7817 11.4717 22.995 11.56 23.0867 11.5983L23.0583 14.3333Z" fill="#353532"/>
</svg>
