<svg width="25" height="25" viewBox="0 0 25 25" fill="none" xmlns="http://www.w3.org/2000/svg">
<path d="M8.15628 4.02705H7.06774C6.66811 4.02637 6.27228 4.10458 5.90293 4.25719C5.53359 4.40981 5.19801 4.63383 4.91543 4.91641C4.63285 5.19899 4.40882 5.53457 4.25621 5.90391C4.10359 6.27326 4.02539 6.66909 4.02607 7.06872V15.9781C5.02446 16.5653 6.13541 16.9355 7.28649 17.0646C7.15017 16.7944 7.07546 16.4973 7.06774 16.1948V9.02393C6.95941 8.9156 6.96045 6.3083 8.15628 4.02705ZM21.0834 8.15518V7.06872C21.0841 6.66909 21.0058 6.27326 20.8532 5.90391C20.7006 5.53457 20.4766 5.19899 20.194 4.91641C19.9114 4.63383 19.5758 4.40981 19.2065 4.25719C18.8372 4.10458 18.4413 4.02637 18.0417 4.02705H9.2417C8.65496 5.02521 8.28512 6.13579 8.15628 7.28643C8.37503 7.06872 8.70003 7.06872 9.02607 7.06872H16.0886C16.1969 7.06872 18.8042 7.06872 21.0854 8.15518H21.0834ZM16.8469 21.0843H17.9334C18.333 21.085 18.7288 21.0068 19.0982 20.8542C19.4675 20.7016 19.8031 20.4776 20.0857 20.195C20.3683 19.9124 20.5923 19.5768 20.7449 19.2075C20.8975 18.8381 20.9757 18.4423 20.975 18.0427V9.2406C19.9766 8.65336 18.8657 8.28316 17.7146 8.15414C17.9334 8.37185 17.9334 8.69685 17.9334 9.02289V16.0854C17.9334 16.1937 17.9334 18.8021 16.8469 21.0843ZM3.91774 16.8468V17.9333C3.91705 18.3329 3.99526 18.7288 4.14788 19.0981C4.30049 19.4675 4.52451 19.803 4.80709 20.0856C5.08968 20.3682 5.42526 20.5922 5.7946 20.7448C6.16394 20.8974 6.55978 20.9757 6.95941 20.975H15.7594C16.3465 19.9769 16.7167 18.8663 16.8459 17.7156C16.6292 17.9333 16.3032 17.9333 15.9771 17.9333H8.9167C8.80837 17.9333 6.20107 17.9333 3.91982 16.8468H3.91774ZM13.8052 0.00726318H5.98232C2.72295 0.00726318 0.00732422 2.72289 0.00732422 5.98226C0.00732422 5.98226 0.225032 11.7406 2.50628 14.4562C2.61462 14.6739 2.83232 14.7823 3.04899 15V6.96039C3.04762 6.43198 3.15068 5.90851 3.35226 5.42006C3.55384 4.93161 3.84996 4.48781 4.2236 4.11417C4.59724 3.74052 5.04104 3.4444 5.52949 3.24282C6.01794 3.04124 6.54142 2.93818 7.06982 2.93955H8.80732C9.13337 2.50518 9.45941 2.17914 9.78545 1.85414C10.7636 1.09372 12.2834 0.441638 13.8052 0.00726318ZM24.9959 13.8052V5.98226C24.9959 2.72289 22.2802 0.00726318 19.0209 0.00726318C19.0209 0.00726318 13.2625 0.22393 10.5459 2.50518C10.3147 2.62809 10.1256 2.81749 10.0032 3.04893H18.0427C18.571 3.04769 19.0942 3.15082 19.5825 3.3524C20.0708 3.55398 20.5144 3.85002 20.8879 4.22354C21.2614 4.59706 21.5575 5.04069 21.7591 5.52895C21.9606 6.01721 22.0638 6.54049 22.0625 7.06872V8.80726C22.4969 9.1333 22.8229 9.45935 23.149 9.78539C23.9094 10.7625 24.5615 12.2833 24.9959 13.8052ZM11.1979 24.9948H19.0209C22.2792 24.9948 24.9959 22.2791 24.9959 19.0198C24.9959 19.0198 24.7782 13.2614 22.4969 10.5458C22.3886 10.3281 22.1709 10.2198 21.9542 10.0021V18.0416C21.9556 18.57 21.8525 19.0935 21.6509 19.582C21.4494 20.0704 21.1532 20.5142 20.7796 20.8879C20.4059 21.2615 19.9621 21.5576 19.4737 21.7592C18.9852 21.9608 18.4618 22.0638 17.9334 22.0625H16.1959C15.8698 22.4968 15.5438 22.8229 15.2177 23.1479C14.2396 23.9083 12.7188 24.5604 11.1969 24.9948H11.1979ZM0.00732422 11.1979V19.0198C0.00732422 22.2791 2.72295 24.9948 5.98232 24.9948C5.98232 24.9948 11.7407 24.7781 14.4573 22.4968C14.674 22.3875 14.7834 22.1708 15 21.9531H7.06878C6.54055 21.9543 6.01727 21.8512 5.52901 21.6496C5.04075 21.448 4.59712 21.152 4.2236 20.7785C3.85009 20.405 3.55404 19.9613 3.35246 19.4731C3.15089 18.9848 3.04775 18.4615 3.04899 17.9333V16.1948C2.61462 15.8687 2.28857 15.5427 1.96253 15.2166C1.09378 14.2396 0.441699 12.7187 0.00732422 11.1979Z" fill="#353532"/>
</svg>
