<svg width="30" height="30" viewBox="0 0 30 30" fill="none" xmlns="http://www.w3.org/2000/svg">
<path d="M10.6797 4.18164C10.0687 4.18164 9.502 4.31842 9 4.60742C7.43113 5.51321 6.83397 7.72055 7.15039 10.4688C4.6127 11.5688 3 13.1887 3 15C3 16.8113 4.6127 18.4312 7.15039 19.5312C6.83413 22.2793 7.43113 24.4868 9 25.3926C9.501 25.6816 10.0677 25.8184 10.6797 25.8184C11.9823 25.8184 13.4879 25.1646 15 24.043C16.5123 25.1646 18.0196 25.8184 19.3223 25.8184C19.9333 25.8184 20.5 25.6816 21.002 25.3926C22.5708 24.4868 23.168 22.2794 22.8516 19.5312C25.3883 18.4312 27 16.8109 27 15C27 13.1887 25.3873 11.5688 22.8496 10.4688C23.1659 7.72065 22.5689 5.51321 21 4.60742C20.499 4.31742 19.9323 4.18164 19.3203 4.18164C18.0177 4.18164 16.5121 4.83541 15 5.95703C13.4878 4.83541 11.9819 4.18164 10.6797 4.18164ZM10.6797 5.93164C11.4613 5.93164 12.495 6.34725 13.6172 7.11719C12.9574 7.73987 12.3112 8.44793 11.6895 9.23633C10.6811 9.38092 9.73035 9.59169 8.84961 9.85547C8.84488 9.79439 8.83368 9.7303 8.83008 9.66992C8.72308 7.88992 9.114 6.56305 9.875 6.12305C10.1 5.99305 10.3627 5.93164 10.6797 5.93164ZM19.3203 5.93164C19.6363 5.93164 19.9 5.99305 20.125 6.12305C20.886 6.56205 21.2769 7.88992 21.1699 9.66992C21.1663 9.7303 21.1551 9.79439 21.1504 9.85547C20.2691 9.59153 19.3177 9.38093 18.3086 9.23633C17.6869 8.44804 17.0426 7.7398 16.3828 7.11719C17.505 6.34738 18.5391 5.93164 19.3203 5.93164ZM15 8.22852C15.2711 8.47525 15.5403 8.73603 15.8125 9.02148C15.5427 9.01242 15.2744 9 15 9C14.7263 9 14.4586 9.01247 14.1895 9.02148C14.4614 8.73633 14.7292 8.47502 15 8.22852ZM15 10.75C15.8287 10.75 16.6141 10.7963 17.3594 10.877C17.8139 11.4947 18.2618 12.1478 18.6816 12.875C19.0841 13.572 19.4399 14.2855 19.7539 15C19.4399 15.7149 19.0843 16.4295 18.6816 17.127C18.2631 17.852 17.8163 18.5009 17.3633 19.1172C16.5917 19.2016 15.8002 19.25 15 19.25C14.1713 19.25 13.3859 19.2037 12.6406 19.123C12.1861 18.5053 11.7382 17.8541 11.3184 17.127C10.9157 16.4295 10.5602 15.7149 10.2461 15C10.56 14.2855 10.9159 13.572 11.3184 12.875C11.7371 12.1499 12.1836 11.4991 12.6367 10.8828C13.4083 10.7984 14.1998 10.75 15 10.75ZM19.7461 11.291C20.1428 11.3868 20.5243 11.4902 20.8828 11.6055C20.8016 11.9725 20.7022 12.3466 20.5898 12.7246C20.4612 12.4831 20.3364 12.2409 20.1973 12C20.0541 11.7522 19.8952 11.5296 19.7461 11.291ZM10.252 11.293C10.1033 11.5308 9.9454 11.753 9.80273 12C9.66367 12.2409 9.5388 12.4831 9.41016 12.7246C9.29751 12.3458 9.19655 11.9713 9.11523 11.6035C9.48037 11.4881 9.86083 11.386 10.252 11.293ZM7.46875 12.2461C7.67945 13.1357 7.97173 14.0579 8.34766 14.998C7.97253 15.9359 7.68147 16.8565 7.4707 17.7441C5.72923 16.9032 4.75 15.8564 4.75 15C4.75 14.121 5.70187 13.1193 7.29688 12.3223C7.35132 12.295 7.41312 12.2727 7.46875 12.2461ZM22.5293 12.2559C24.2708 13.0968 25.25 14.1436 25.25 15C25.25 15.879 24.2981 16.8807 22.7031 17.6777C22.6487 17.705 22.5869 17.7273 22.5312 17.7539C22.3204 16.8638 22.0305 15.9407 21.6543 15C22.029 14.0629 22.3187 13.1428 22.5293 12.2559ZM15 13C13.895 13 13 13.895 13 15C13 16.105 13.895 17 15 17C16.105 17 17 16.105 17 15C17 13.895 16.105 13 15 13ZM9.41016 17.2754C9.53888 17.5169 9.66553 17.759 9.80469 18C9.94766 18.2476 10.1049 18.4706 10.2539 18.709C9.85716 18.6132 9.47575 18.5098 9.11719 18.3945C9.19848 18.0273 9.29767 17.6536 9.41016 17.2754ZM20.5898 17.2773C20.7024 17.6558 20.8035 18.0291 20.8848 18.3965C20.5196 18.5119 20.1392 18.614 19.748 18.707C19.8967 18.4692 20.0546 18.247 20.1973 18C20.336 17.7596 20.4614 17.5183 20.5898 17.2773ZM8.84961 20.1445C9.7309 20.4085 10.6823 20.6191 11.6914 20.7637C12.3133 21.5523 12.9571 22.2619 13.6172 22.8848C12.495 23.6545 11.4613 24.0703 10.6797 24.0703C10.3637 24.0703 10.1 24.007 9.875 23.877C9.114 23.438 8.72308 22.112 8.83008 20.332C8.83374 20.271 8.84479 20.2063 8.84961 20.1445ZM21.1504 20.1445C21.1552 20.2063 21.1663 20.271 21.1699 20.332C21.2769 22.112 20.886 23.437 20.125 23.877C19.9 24.007 19.6373 24.0703 19.3203 24.0703C18.5387 24.0703 17.505 23.6546 16.3828 22.8848C17.043 22.2619 17.6885 21.5525 18.3105 20.7637C19.3189 20.6191 20.2697 20.4083 21.1504 20.1445ZM14.1875 20.9785C14.4573 20.9876 14.7256 21 15 21C15.2744 21 15.5427 20.9876 15.8125 20.9785C15.5403 21.264 15.2711 21.5248 15 21.7715C14.7289 21.5247 14.4597 21.264 14.1875 20.9785Z" fill="#353532"/>
</svg>
