<svg width="24" height="22" viewBox="0 0 24 22" fill="none" xmlns="http://www.w3.org/2000/svg">
<path d="M7.67969 0.181641C7.06869 0.181641 6.502 0.318422 6 0.607422C4.43113 1.51321 3.83397 3.72055 4.15039 6.46875C1.6127 7.56883 0 9.18867 0 11C0 12.8113 1.6127 14.4312 4.15039 15.5312C3.83413 18.2793 4.43113 20.4868 6 21.3926C6.501 21.6816 7.06769 21.8184 7.67969 21.8184C8.98231 21.8184 10.4879 21.1646 12 20.043C13.5123 21.1646 15.0196 21.8184 16.3223 21.8184C16.9333 21.8184 17.5 21.6816 18.002 21.3926C19.5708 20.4868 20.168 18.2794 19.8516 15.5312C22.3883 14.4312 24 12.8109 24 11C24 9.18867 22.3873 7.56883 19.8496 6.46875C20.1659 3.72065 19.5689 1.51321 18 0.607422C17.499 0.317422 16.9323 0.181641 16.3203 0.181641C15.0177 0.181641 13.5121 0.835411 12 1.95703C10.4878 0.835411 8.98186 0.181641 7.67969 0.181641ZM7.67969 1.93164C8.46132 1.93164 9.49496 2.34725 10.6172 3.11719C9.95737 3.73987 9.31115 4.44793 8.68945 5.23633C7.68108 5.38092 6.73035 5.59169 5.84961 5.85547C5.84488 5.79439 5.83368 5.7303 5.83008 5.66992C5.72308 3.88992 6.114 2.56305 6.875 2.12305C7.1 1.99305 7.36269 1.93164 7.67969 1.93164ZM16.3203 1.93164C16.6363 1.93164 16.9 1.99305 17.125 2.12305C17.886 2.56205 18.2769 3.88992 18.1699 5.66992C18.1663 5.7303 18.1551 5.79439 18.1504 5.85547C17.2691 5.59153 16.3177 5.38093 15.3086 5.23633C14.6869 4.44804 14.0426 3.7398 13.3828 3.11719C14.505 2.34738 15.5391 1.93164 16.3203 1.93164ZM12 4.22852C12.2711 4.47525 12.5403 4.73603 12.8125 5.02148C12.5427 5.01242 12.2744 5 12 5C11.7263 5 11.4586 5.01247 11.1895 5.02148C11.4614 4.73633 11.7292 4.47502 12 4.22852ZM12 6.75C12.8287 6.75 13.6141 6.79632 14.3594 6.87695C14.8139 7.4947 15.2618 8.14781 15.6816 8.875C16.0841 9.57203 16.4399 10.2855 16.7539 11C16.4399 11.7149 16.0843 12.4295 15.6816 13.127C15.2631 13.852 14.8163 14.5009 14.3633 15.1172C13.5917 15.2016 12.8002 15.25 12 15.25C11.1713 15.25 10.3859 15.2037 9.64062 15.123C9.18614 14.5053 8.73823 13.8541 8.31836 13.127C7.91568 12.4295 7.56019 11.7149 7.24609 11C7.55997 10.2855 7.91593 9.57203 8.31836 8.875C8.73708 8.14991 9.18361 7.49905 9.63672 6.88281C10.4083 6.79839 11.1998 6.75 12 6.75ZM16.7461 7.29102C17.1428 7.3868 17.5243 7.49021 17.8828 7.60547C17.8016 7.97252 17.7022 8.34661 17.5898 8.72461C17.4612 8.48314 17.3364 8.2409 17.1973 8C17.0541 7.7522 16.8952 7.52956 16.7461 7.29102ZM7.25195 7.29297C7.10331 7.53078 6.9454 7.75299 6.80273 8C6.66367 8.24094 6.5388 8.48311 6.41016 8.72461C6.29751 8.34583 6.19655 7.97129 6.11523 7.60352C6.48037 7.48815 6.86083 7.38599 7.25195 7.29297ZM4.46875 8.24609C4.67945 9.13571 4.97173 10.0579 5.34766 10.998C4.97253 11.9359 4.68147 12.8565 4.4707 13.7441C2.72923 12.9032 1.75 11.8564 1.75 11C1.75 10.121 2.70187 9.11927 4.29688 8.32227C4.35132 8.29503 4.41312 8.27269 4.46875 8.24609ZM19.5293 8.25586C21.2708 9.0968 22.25 10.1436 22.25 11C22.25 11.879 21.2981 12.8807 19.7031 13.6777C19.6487 13.705 19.5869 13.7273 19.5312 13.7539C19.3204 12.8638 19.0305 11.9407 18.6543 11C19.029 10.0629 19.3187 9.1428 19.5293 8.25586ZM12 9C10.895 9 10 9.895 10 11C10 12.105 10.895 13 12 13C13.105 13 14 12.105 14 11C14 9.895 13.105 9 12 9ZM6.41016 13.2754C6.53888 13.5169 6.66553 13.759 6.80469 14C6.94766 14.2476 7.10492 14.4706 7.25391 14.709C6.85716 14.6132 6.47575 14.5098 6.11719 14.3945C6.19848 14.0273 6.29767 13.6536 6.41016 13.2754ZM17.5898 13.2773C17.7024 13.6558 17.8035 14.0291 17.8848 14.3965C17.5196 14.5119 17.1392 14.614 16.748 14.707C16.8967 14.4692 17.0546 14.247 17.1973 14C17.336 13.7596 17.4614 13.5183 17.5898 13.2773ZM5.84961 16.1445C6.7309 16.4085 7.68233 16.6191 8.69141 16.7637C9.31329 17.5523 9.95709 18.2619 10.6172 18.8848C9.49504 19.6545 8.46127 20.0703 7.67969 20.0703C7.36369 20.0703 7.1 20.007 6.875 19.877C6.114 19.438 5.72308 18.112 5.83008 16.332C5.83374 16.271 5.84479 16.2063 5.84961 16.1445ZM18.1504 16.1445C18.1552 16.2063 18.1663 16.271 18.1699 16.332C18.2769 18.112 17.886 19.437 17.125 19.877C16.9 20.007 16.6373 20.0703 16.3203 20.0703C15.5387 20.0703 14.505 19.6546 13.3828 18.8848C14.043 18.2619 14.6885 17.5525 15.3105 16.7637C16.3189 16.6191 17.2697 16.4083 18.1504 16.1445ZM11.1875 16.9785C11.4573 16.9876 11.7256 17 12 17C12.2744 17 12.5427 16.9876 12.8125 16.9785C12.5403 17.264 12.2711 17.5248 12 17.7715C11.7289 17.5247 11.4597 17.264 11.1875 16.9785Z" fill="#353532"/>
</svg>
