<svg width="25" height="25" viewBox="0 0 25 25" xmlns="http://www.w3.org/2000/svg">
<path d="M13.1875 12.5C13.1875 12.8796 12.8797 13.1874 12.5001 13.1874C12.1205 13.1874 11.8127 12.8796 11.8127 12.5C11.8127 12.1204 12.1205 11.8126 12.5001 11.8126C12.8797 11.8126 13.1875 12.1204 13.1875 12.5Z"/>
<path d="M12.5 0C5.59643 0 0 5.59643 0 12.5C0 19.4036 5.59643 25 12.5 25C19.4036 25 25 19.4036 25 12.5C25 5.59643 19.4036 0 12.5 0ZM3.82098 9.40848L2.8404 9.2123C2.85488 9.1401 3.2176 7.42029 5.24589 5.39203C7.2742 3.36373 8.99397 3.001 9.06616 2.98654L9.16434 3.47672L9.26513 3.96641C9.25014 3.96972 7.7483 4.30384 5.95286 6.099C4.13643 7.91556 3.82393 9.39384 3.82098 9.40848ZM7.03143 9.79649L6.05192 9.59542C6.07285 9.48975 6.29118 8.53011 7.42607 7.39538C8.56116 6.26029 9.52027 6.0423 9.62612 6.02123L9.72412 6.51141L9.82718 7.00074C9.81968 7.00248 9.05535 7.18018 8.13321 8.10252C7.21107 9.02487 7.03317 9.78899 7.03143 9.79649ZM12.5002 16.2501C10.4292 16.2501 8.75018 14.5711 8.75018 12.5001C8.75018 10.429 10.4292 8.75006 12.5002 8.75006C14.5712 8.75006 16.2502 10.429 16.2502 12.5001C16.2502 14.5711 14.5712 16.2501 12.5002 16.2501ZM15.3127 18.0715C15.3155 18.0708 16.0795 17.893 17.002 16.971C17.9297 16.0433 18.1013 15.289 18.1027 15.2817L19.0833 15.4779C19.0623 15.5834 18.844 16.5429 17.7091 17.6779C16.5744 18.8127 15.6146 19.031 15.5091 19.0519L15.3127 18.0715ZM19.7125 19.8583C17.6842 21.8862 15.9644 22.2491 15.8922 22.2636L15.696 21.283C15.7082 21.2802 17.2106 20.9461 19.0055 19.1513C20.8221 17.3346 21.1348 15.8563 21.1376 15.8418L22.1181 16.038C22.1035 16.11 21.7408 17.8298 19.7125 19.8583Z"/>
</svg>
