<svg width="30" height="30" viewBox="0 0 30 30" fill="none" xmlns="http://www.w3.org/2000/svg">
<path d="M25.8175 16.9247C24.7694 16.9301 23.861 17.1821 23.0997 17.557C22.8213 17.0015 22.5393 16.5125 22.4919 16.1489C22.4367 15.7247 22.3725 15.4715 22.4391 14.9658C22.5057 14.46 22.7985 13.7442 22.7937 13.6908C22.7895 13.6374 22.7283 13.38 22.1235 13.3752C21.5187 13.371 21.0015 13.4916 20.9403 13.6512C20.8791 13.8108 20.7628 14.1702 20.6908 14.5452C20.5846 15.0936 19.4836 17.0495 18.8578 18.0724C18.6532 17.6728 18.4792 17.3213 18.4433 17.0429C18.3881 16.6187 18.3239 16.3655 18.3905 15.8597C18.457 15.3539 18.7498 14.6382 18.745 14.5848C18.7408 14.5314 18.6796 14.274 18.0749 14.2692C17.4701 14.265 16.9529 14.3856 16.8917 14.5452C16.8305 14.7048 16.7657 15.078 16.6421 15.4391C16.5179 15.8003 15.054 19.0624 14.6706 19.9077C14.475 20.3385 14.3052 20.6847 14.1852 20.9211L14.1846 20.9199C14.1846 20.9199 14.1774 20.9355 14.1642 20.9625C14.0616 21.1635 14.0004 21.2751 14.0004 21.2751C14.0004 21.2751 14.001 21.2769 14.0022 21.2793C13.9206 21.4269 13.8336 21.5643 13.7904 21.5643C13.7604 21.5643 13.6999 21.1707 13.8036 20.6313C14.0214 19.4998 14.5446 17.7346 14.5398 17.674C14.5374 17.6428 14.637 17.3357 14.1978 17.1743C13.7712 17.0183 13.6189 17.2787 13.5799 17.2793C13.5421 17.2799 13.5139 17.3711 13.5139 17.3711C13.5139 17.3711 13.9896 15.3863 12.6067 15.3863C11.7427 15.3863 10.5452 16.3319 9.95481 17.1887C9.58282 17.3915 8.78606 17.8264 7.94069 18.2908C7.61611 18.469 7.28492 18.6514 6.97053 18.8248C6.94893 18.8014 6.92794 18.7774 6.90574 18.754C5.22941 16.9655 2.13114 15.7007 2.26253 13.2966C2.31053 12.4225 2.61412 10.121 8.21668 7.32928C12.8059 5.04217 16.4801 5.67155 17.1149 7.06649C18.0221 9.059 15.1512 12.7626 10.3856 13.2966C8.56947 13.5 7.61371 12.7962 7.37552 12.5341C7.12533 12.2581 7.08813 12.2455 6.99453 12.2977C6.84214 12.3823 6.93874 12.6259 6.99453 12.771C7.13673 13.1412 7.7205 13.7982 8.71646 14.1246C9.59242 14.412 11.7241 14.5698 14.3028 13.5726C17.1905 12.4555 19.4452 9.34819 18.7834 6.7509C18.1097 4.10921 13.7298 3.24105 9.58462 4.71339C7.11753 5.58995 4.44704 6.96569 2.52652 8.76142C0.243018 10.8973 -0.120567 12.756 0.029427 13.5324C0.562805 16.2923 4.36604 18.0892 5.88938 19.4212C5.81438 19.4626 5.74359 19.5016 5.67939 19.537C4.91562 19.9149 2.01654 21.4323 1.29117 23.0354C0.468608 24.8539 1.42197 26.1589 2.05374 26.3347C4.00966 26.8789 6.01717 25.8997 7.09593 24.2906C8.17468 22.682 8.04269 20.5875 7.54771 19.6312C7.54171 19.6192 7.53451 19.6078 7.52851 19.5958C7.7259 19.4788 7.92689 19.3606 8.12609 19.2436C8.51487 19.0156 8.89645 18.8026 9.22764 18.622C9.04225 19.1296 8.90665 19.738 8.83586 20.6169C8.75306 21.6495 9.17604 22.9838 9.72982 23.5088C9.97341 23.7398 10.2668 23.7452 10.4528 23.7452C11.0972 23.7452 11.3911 23.2094 11.7145 22.5752C12.1117 21.7977 12.4639 20.8929 12.4639 20.8929C12.4639 20.8929 12.0217 23.3378 13.2265 23.3378C13.6651 23.3378 14.1066 22.7684 14.3034 22.4786C14.304 22.4816 14.304 22.4834 14.304 22.4834C14.304 22.4834 14.3154 22.4648 14.3376 22.4264C14.3832 22.3568 14.409 22.3124 14.409 22.3124C14.409 22.3124 14.4102 22.3076 14.4114 22.2998C14.5878 21.9939 14.979 21.2955 15.5658 20.1435C16.3235 18.6556 17.0507 16.7921 17.0507 16.7921C17.0507 16.7921 17.1185 17.2481 17.3399 18.001C17.4701 18.4444 17.7473 18.9346 17.9657 19.4044C17.7899 19.6486 17.6819 19.7884 17.6819 19.7884C17.6819 19.7884 17.6831 19.7908 17.6849 19.7956C17.5445 19.9821 17.3867 20.1831 17.2217 20.3799C16.6235 21.0927 15.9108 21.9063 15.8154 22.1415C15.7032 22.418 15.7296 22.622 15.9468 22.7852C16.1051 22.9046 16.3877 22.9232 16.6829 22.9034C17.2205 22.8674 17.5991 22.7336 17.7857 22.6526C18.0767 22.55 18.4157 22.388 18.7336 22.1541C19.3204 21.7227 19.6744 21.1053 19.6408 20.2875C19.6222 19.837 19.4782 19.3906 19.2964 18.9688C19.3498 18.892 19.4032 18.8152 19.4566 18.7366C20.3818 17.3837 21.0993 15.8975 21.0993 15.8975C21.0993 15.8975 21.1671 16.3535 21.3885 17.1065C21.5007 17.488 21.7221 17.9038 21.9207 18.3118C21.0507 19.0186 20.5114 19.8399 20.3236 20.3787C19.9774 21.3753 20.2486 21.8271 20.7574 21.9297C20.9877 21.9765 21.3135 21.8709 21.5583 21.7671C21.8631 21.6663 22.2291 21.4977 22.5711 21.2463C23.1578 20.8149 23.7224 20.2107 23.6882 19.393C23.6726 19.021 23.5718 18.6514 23.435 18.2962C24.1724 17.989 25.1276 17.818 26.3437 17.9602C28.953 18.265 29.4648 19.8939 29.367 20.5755C29.2692 21.2577 28.722 21.6321 28.539 21.7455C28.356 21.8589 28.3002 21.8979 28.3158 21.9819C28.338 22.1043 28.4226 22.0995 28.5786 22.0731C28.7934 22.0371 29.9484 21.5187 29.9982 20.2599C30.0606 18.6652 28.5294 16.9103 25.8175 16.9247ZM5.70759 23.7044C4.84362 24.6469 3.63587 25.0033 3.1181 24.7033C2.55892 24.3794 2.78031 22.991 3.84107 21.9909C4.48724 21.3813 5.3218 20.8197 5.87558 20.4735C6.00158 20.3979 6.18637 20.2863 6.41136 20.1513C6.44856 20.1303 6.46956 20.1183 6.46956 20.1183L6.46896 20.1171C6.51215 20.0913 6.55715 20.0643 6.60275 20.0367C6.98853 21.4611 6.61475 22.715 5.70759 23.7044ZM12.0031 19.4242C11.7019 20.1579 11.072 22.0353 10.6886 21.9345C10.3592 21.8481 10.1588 20.4207 10.6226 19.0168C10.856 18.31 11.3545 17.4653 11.6479 17.1371C12.1195 16.6097 12.6391 16.4369 12.7651 16.6511C12.9265 16.9235 12.1921 18.964 12.0031 19.4242ZM17.2049 21.9063C17.0771 21.9729 16.9601 22.0149 16.9061 21.9825C16.8659 21.9585 16.9589 21.8709 16.9589 21.8709C16.9589 21.8709 17.6093 21.1707 17.8661 20.8521C18.0149 20.6667 18.1883 20.4465 18.3761 20.2005C18.3779 20.2251 18.3785 20.2497 18.3785 20.2737C18.3761 21.1125 17.5661 21.6783 17.2049 21.9063ZM21.2121 20.9925C21.1167 20.9247 21.1329 20.7057 21.4455 20.0241C21.5685 19.7566 21.8487 19.3054 22.3365 18.8746C22.3929 19.0516 22.4277 19.2214 22.4265 19.3798C22.4199 20.4351 21.6669 20.8293 21.2121 20.9925Z" fill="#353532"/>
</svg>
