<svg width="34" height="26" viewBox="0 0 34 26" fill="none" xmlns="http://www.w3.org/2000/svg">
<path d="M28.9336 14.4846C27.759 14.4907 26.741 14.7731 25.8877 15.1933C25.5757 14.5707 25.2597 14.0227 25.2066 13.6152C25.1447 13.1399 25.0728 12.8561 25.1474 12.2893C25.222 11.7225 25.5502 10.9203 25.5448 10.8605C25.5401 10.8006 25.4715 10.5122 24.7937 10.5068C24.116 10.5021 23.5364 10.6372 23.4678 10.8161C23.3992 10.9949 23.2688 11.3977 23.1881 11.8179C23.0691 12.4325 21.8352 14.6245 21.1339 15.7709C20.9046 15.3231 20.7096 14.9291 20.6693 14.6171C20.6074 14.1417 20.5355 13.858 20.6101 13.2911C20.6848 12.7243 21.0129 11.9222 21.0075 11.8623C21.0028 11.8025 20.9342 11.514 20.2564 11.5086C19.5787 11.5039 18.9991 11.6391 18.9305 11.8179C18.8619 11.9968 18.7893 12.415 18.6508 12.8198C18.5116 13.2246 16.871 16.8804 16.4413 17.8278C16.2221 18.3105 16.0318 18.6985 15.8973 18.9634L15.8967 18.9621C15.8967 18.9621 15.8886 18.9796 15.8738 19.0098C15.7588 19.2351 15.6902 19.3601 15.6902 19.3601C15.6902 19.3601 15.6909 19.3622 15.6923 19.3648C15.6008 19.5303 15.5033 19.6842 15.4549 19.6842C15.4213 19.6842 15.3534 19.2431 15.4697 18.6387C15.7138 17.3705 16.3001 15.3924 16.2947 15.3245C16.292 15.2895 16.4037 14.9452 15.9115 14.7644C15.4334 14.5895 15.2626 14.8813 15.2189 14.882C15.1765 14.8827 15.1449 14.9849 15.1449 14.9849C15.1449 14.9849 15.6781 12.7606 14.1283 12.7606C13.16 12.7606 11.818 13.8203 11.1563 14.7805C10.7394 15.0078 9.84651 15.4952 8.89911 16.0157C8.53535 16.2154 8.16419 16.4198 7.81186 16.6141C7.78765 16.5879 7.76412 16.561 7.73924 16.5348C5.86058 14.5304 2.38836 13.113 2.53561 10.4187C2.5894 9.43903 2.92963 6.85974 9.20841 3.73111C14.3515 1.16796 18.4692 1.8733 19.1806 3.4366C20.1973 5.66961 16.9799 9.82027 11.6391 10.4187C9.60377 10.6466 8.53266 9.85793 8.26572 9.56409C7.98533 9.25479 7.94364 9.24067 7.83875 9.29917C7.66796 9.39398 7.77622 9.66697 7.83875 9.82969C7.99811 10.2445 8.65234 10.9808 9.76851 11.3466C10.7502 11.6687 13.1392 11.8455 16.0291 10.728C19.2653 9.47601 21.7922 5.9937 21.0505 3.08293C20.2954 0.122395 15.387 -0.850553 10.7415 0.799491C7.97659 1.78185 4.98378 3.32364 2.83146 5.33611C0.27235 7.72981 -0.135119 9.81288 0.0329788 10.6829C0.630733 13.7759 4.89301 15.7897 6.60021 17.2825C6.51616 17.3288 6.43682 17.3726 6.36487 17.4122C5.50892 17.8358 2.25993 19.5363 1.44701 21.3329C0.525168 23.3709 1.5936 24.8334 2.30162 25.0304C4.49361 25.6403 6.74343 24.5429 7.95239 22.7396C9.16134 20.9369 9.01342 18.5896 8.4587 17.5178C8.45197 17.5043 8.4439 17.4916 8.43718 17.4781C8.65839 17.347 8.88365 17.2145 9.10688 17.0834C9.54259 16.8279 9.97023 16.5892 10.3414 16.3868C10.1336 16.9557 9.98166 17.6375 9.90232 18.6225C9.80953 19.7797 10.2836 21.2751 10.9042 21.8634C11.1772 22.1223 11.506 22.1284 11.7144 22.1284C12.4366 22.1284 12.766 21.5279 13.1284 20.8172C13.5736 19.9458 13.9683 18.9318 13.9683 18.9318C13.9683 18.9318 13.4727 21.6718 14.8229 21.6718C15.3144 21.6718 15.8093 21.0337 16.0298 20.709C16.0305 20.7123 16.0305 20.7143 16.0305 20.7143C16.0305 20.7143 16.0433 20.6935 16.0681 20.6505C16.1192 20.5725 16.1481 20.5227 16.1481 20.5227C16.1481 20.5227 16.1495 20.5173 16.1508 20.5086C16.3485 20.1657 16.7869 19.383 17.4445 18.092C18.2937 16.4245 19.1087 14.336 19.1087 14.336C19.1087 14.336 19.1847 14.8471 19.4328 15.6909C19.5787 16.1878 19.8893 16.7371 20.1341 17.2636C19.9371 17.5373 19.816 17.694 19.816 17.694C19.816 17.694 19.8174 17.6966 19.8194 17.702C19.6621 17.9111 19.4852 18.1364 19.3003 18.3569C18.6299 19.1557 17.8311 20.0675 17.7242 20.3311C17.5985 20.641 17.6281 20.8697 17.8715 21.0525C18.049 21.1863 18.3657 21.2072 18.6965 21.185C19.299 21.1447 19.7232 20.9947 19.9324 20.9039C20.2585 20.789 20.6384 20.6074 20.9947 20.3452C21.6523 19.8617 22.049 19.1699 22.0114 18.2534C21.9905 17.7484 21.8292 17.2482 21.6254 16.7755C21.6853 16.6894 21.7451 16.6033 21.805 16.5153C22.8418 14.999 23.646 13.3335 23.646 13.3335C23.646 13.3335 23.7219 13.8445 23.9701 14.6884C24.0958 15.116 24.3439 15.582 24.5665 16.0392C23.5915 16.8313 22.987 17.7518 22.7766 18.3556C22.3886 19.4724 22.6925 19.9787 23.2627 20.0937C23.5209 20.1462 23.886 20.0278 24.1603 19.9115C24.5019 19.7985 24.9121 19.6096 25.2953 19.3279C25.9529 18.8444 26.5856 18.1673 26.5473 17.2509C26.5298 16.834 26.4169 16.4198 26.2636 16.0217C27.0899 15.6775 28.1604 15.4858 29.5233 15.6452C32.4475 15.9868 33.0211 17.8123 32.9115 18.5761C32.8019 19.3406 32.1887 19.7602 31.9836 19.8873C31.7785 20.0144 31.716 20.0581 31.7335 20.1522C31.7583 20.2894 31.8531 20.284 32.028 20.2544C32.2687 20.2141 33.563 19.6331 33.6188 18.2225C33.6888 16.4352 31.9728 14.4685 28.9336 14.4846ZM6.39648 22.0826C5.42823 23.139 4.07471 23.5384 3.49444 23.2022C2.86777 22.8391 3.11589 21.2832 4.30467 20.1623C5.02883 19.4792 5.96413 18.8498 6.58474 18.4618C6.72595 18.3771 6.93304 18.252 7.18519 18.1008C7.22688 18.0772 7.25041 18.0638 7.25041 18.0638L7.24974 18.0624C7.29815 18.0335 7.34858 18.0033 7.39968 17.9723C7.83203 19.5686 7.41313 20.9739 6.39648 22.0826ZM13.4519 17.2858C13.1143 18.1081 12.4083 20.2121 11.9787 20.0991C11.6095 20.0023 11.3849 18.4027 11.9047 16.8293C12.1663 16.0372 12.725 15.0905 13.0538 14.7227C13.5823 14.1316 14.1646 13.938 14.3058 14.178C14.4867 14.4833 13.6637 16.7701 13.4519 17.2858ZM19.2815 20.0675C19.1383 20.1421 19.0071 20.1892 18.9466 20.1529C18.9016 20.126 19.0058 20.0278 19.0058 20.0278C19.0058 20.0278 19.7347 19.2431 20.0225 18.8861C20.1892 18.6783 20.3835 18.4316 20.594 18.1559C20.596 18.1835 20.5967 18.211 20.5967 18.2379C20.594 19.1779 19.6863 19.812 19.2815 20.0675ZM23.7724 19.0434C23.6655 18.9675 23.6836 18.722 24.0339 17.9582C24.1718 17.6583 24.4858 17.1527 25.0324 16.6699C25.0956 16.8683 25.1346 17.0585 25.1333 17.2361C25.1259 18.4188 24.282 18.8606 23.7724 19.0434Z" fill="#353532"/>
</svg>
