<svg xmlns="http://www.w3.org/2000/svg" viewBox="0 0 707.15 534.78"><defs><style>.cls-1{fill:#de3837;}.cls-2{fill:#fffef7;}.cls-10,.cls-11,.cls-12,.cls-13,.cls-14,.cls-15,.cls-16,.cls-17,.cls-18,.cls-19,.cls-20,.cls-21,.cls-22,.cls-23,.cls-3,.cls-4,.cls-5,.cls-6,.cls-7,.cls-8,.cls-9{fill:none;}.cls-10,.cls-11,.cls-12,.cls-13,.cls-14,.cls-15,.cls-16,.cls-17,.cls-18,.cls-19,.cls-20,.cls-21,.cls-22,.cls-23,.cls-3,.cls-6,.cls-7,.cls-8,.cls-9{stroke:#d9d7d0;}.cls-10,.cls-11,.cls-12,.cls-13,.cls-14,.cls-15,.cls-16,.cls-17,.cls-18,.cls-19,.cls-20,.cls-21,.cls-22,.cls-23,.cls-3,.cls-5,.cls-6,.cls-7,.cls-8,.cls-9{stroke-linecap:round;stroke-linejoin:round;}.cls-10,.cls-11,.cls-12,.cls-13,.cls-14,.cls-15,.cls-16,.cls-17,.cls-18,.cls-19,.cls-20,.cls-21,.cls-3,.cls-4,.cls-6,.cls-7,.cls-8,.cls-9{stroke-width:4px;}.cls-3{stroke-dasharray:0 8;}.cls-4{stroke:#231f20;stroke-miterlimit:10;}.cls-5{stroke:#fffef8;stroke-dasharray:0 20;}.cls-22,.cls-23,.cls-5{stroke-width:10px;}.cls-7{stroke-dasharray:0 7.92;}.cls-8{stroke-dasharray:0 8.09;}.cls-9{stroke-dasharray:0 8.1;}.cls-10{stroke-dasharray:0 7.93;}.cls-11{stroke-dasharray:0 7.94;}.cls-12{stroke-dasharray:0 7.93;}.cls-13{stroke-dasharray:0 7.99;}.cls-14{stroke-dasharray:0 7.99;}.cls-15{stroke-dasharray:0 7.99;}.cls-16{stroke-dasharray:0 8.06;}.cls-17{stroke-dasharray:0 8.13;}.cls-18{stroke-dasharray:0 8.1;}.cls-19{stroke-dasharray:0 8.05;}.cls-20{stroke-dasharray:0 8.07;}.cls-21{stroke-dasharray:0 8.46;}.cls-23{stroke-dasharray:0 20.28;}</style></defs><g id="Layer_2" data-name="Layer 2"><g id="red_rect" data-name="red rect"><rect class="cls-1" x="233.62" width="473.53" height="473.53"/></g><g id="right_white_rect" data-name="right white rect"><rect class="cls-2" x="627.67" y="110.38" width="28.88" height="317.03"/></g><g id="bottom_right_dots" data-name="bottom right dots"><line class="cls-3" x1="649.91" y1="337.38" x2="628.3" y2="337.38"/><line class="cls-3" x1="649.91" y1="345.32" x2="628.3" y2="345.32"/><line class="cls-3" x1="649.91" y1="353.3" x2="628.3" y2="353.3"/><line class="cls-3" x1="649.91" y1="361.27" x2="628.3" y2="361.27"/><line class="cls-3" x1="649.91" y1="368.32" x2="628.3" y2="368.32"/><line class="cls-3" x1="649.91" y1="376.3" x2="628.3" y2="376.3"/><line class="cls-3" x1="649.91" y1="384.02" x2="628.3" y2="384.02"/><line class="cls-3" x1="649.91" y1="391.58" x2="628.3" y2="391.58"/></g><g id="left_white_rect" data-name="left white rect"><rect class="cls-2" x="402.27" y="224.22" width="316.49" height="89.37" transform="translate(829.42 -291.62) rotate(90)"/></g><g id="bottom_left_dots" data-name="bottom left dots"><line class="cls-3" x1="599.04" y1="337.27" x2="564.34" y2="337.27"/><line class="cls-3" x1="599.04" y1="345.32" x2="564.34" y2="345.32"/><line class="cls-3" x1="599.04" y1="353.3" x2="564.34" y2="353.3"/><line class="cls-3" x1="599.04" y1="361.27" x2="564.34" y2="361.27"/><line class="cls-3" x1="599.04" y1="368.32" x2="564.34" y2="368.32"/><line class="cls-3" x1="599.04" y1="376.3" x2="564.34" y2="376.3"/><line class="cls-3" x1="599.04" y1="384.02" x2="564.34" y2="384.02"/><line class="cls-3" x1="599.04" y1="391.46" x2="564.34" y2="391.46"/></g><g id="bottom_rect_outline" data-name="bottom rect outline"><rect class="cls-4" x="587.76" y="300.7" width="68.66" height="126.31" transform="translate(985.95 -258.24) rotate(90)"/></g><g id="top_right_dots" data-name="top right dots"><line class="cls-3" x1="640.4" y1="166.55" x2="631.53" y2="166.55"/><line class="cls-3" x1="640.4" y1="174.52" x2="631.53" y2="174.52"/><line class="cls-3" x1="640.4" y1="182.69" x2="631.53" y2="182.69"/></g><g id="top_rect_outline" data-name="top rect outline"><rect class="cls-4" x="559.67" y="102.77" width="31.56" height="143.81" transform="translate(750.13 -400.78) rotate(90)"/></g><g id="top_left_dots" data-name="top left dots"><line class="cls-3" x1="600.04" y1="166.55" x2="515.83" y2="166.55"/><line class="cls-3" x1="600.04" y1="174.52" x2="515.83" y2="174.52"/><line class="cls-3" x1="600.04" y1="182.69" x2="515.83" y2="182.69"/></g><g id="dots_line" data-name="dots line"><line class="cls-5" x1="475.53" y1="126.62" x2="475.53" y2="415.62"/></g><g id="dots_half_circle" data-name="dots half circle"><path class="cls-2" d="M232.76,402.23a123.19,123.19,0,0,0,0-246.37Z"/><line class="cls-6" x1="238.76" y1="164.32" x2="238.76" y2="164.32"/><path class="cls-7" d="M246.68,164.61c57.7,4.22,103.26,54.21,103.26,115.27,0,62.45-47.65,113.33-107.22,115.5"/><line class="cls-6" x1="238.76" y1="395.45" x2="238.76" y2="395.45"/><line class="cls-6" x1="238.76" y1="172.47" x2="238.76" y2="172.47"/><path class="cls-8" d="M246.85,172.79c53.5,4.28,95.62,50.63,95.62,107.18,0,58-44.26,105.22-99.66,107.42"/><line class="cls-6" x1="238.76" y1="387.47" x2="238.76" y2="387.47"/><line class="cls-6" x1="238.76" y1="181.06" x2="238.76" y2="181.06"/><path class="cls-9" d="M246.86,181.4c49.74,4.2,88.83,46.75,88.83,98.63,0,53.27-41.22,96.72-92.88,98.89"/><line class="cls-6" x1="238.76" y1="379" x2="238.76" y2="379"/><line class="cls-6" x1="238.76" y1="188.45" x2="238.76" y2="188.45"/><path class="cls-10" d="M246.69,188.8c46.08,4.08,82.23,43.38,82.23,91.26,0,49.24-38.24,89.4-86.19,91.51"/><line class="cls-6" x1="238.76" y1="371.66" x2="238.76" y2="371.66"/><line class="cls-6" x1="238.76" y1="196.26" x2="238.76" y2="196.26"/><path class="cls-11" d="M246.7,196.64c42.11,4,75.05,39.84,75.05,83.42,0,44.93-35,81.61-79,83.7"/><line class="cls-6" x1="238.76" y1="363.86" x2="238.76" y2="363.86"/><line class="cls-6" x1="238.76" y1="203.66" x2="238.76" y2="203.66"/><path class="cls-12" d="M246.69,204.07c37.86,4,67.37,36.42,67.37,75.81,0,40.76-31.59,74-71.33,76.13"/><line class="cls-6" x1="238.76" y1="356.11" x2="238.76" y2="356.11"/><line class="cls-6" x1="238.76" y1="210.98" x2="238.76" y2="210.98"/><path class="cls-13" d="M246.74,211.43a68.64,68.64,0,0,1-4,136.7"/><line class="cls-6" x1="238.76" y1="348.24" x2="238.76" y2="348.24"/><line class="cls-6" x1="238.76" y1="218.11" x2="238.76" y2="218.11"/><path class="cls-14" d="M246.73,218.63a61.1,61.1,0,0,1,52.82,60.72c0,32.48-25.08,59-56.79,61.12"/><line class="cls-6" x1="238.76" y1="340.6" x2="238.76" y2="340.6"/><line class="cls-6" x1="238.76" y1="225.53" x2="238.76" y2="225.53"/><path class="cls-15" d="M246.73,226.13a53.63,53.63,0,0,1-4,106.42"/><line class="cls-6" x1="238.76" y1="332.69" x2="238.76" y2="332.69"/><line class="cls-6" x1="238.76" y1="232.72" x2="238.76" y2="232.72"/><path class="cls-16" d="M246.79,233.43a46.33,46.33,0,0,1,37.86,45.78c0,24.31-18.4,44.26-41.86,46.32"/><line class="cls-6" x1="238.76" y1="325.71" x2="238.76" y2="325.71"/><line class="cls-6" x1="238.76" y1="239.78" x2="238.76" y2="239.78"/><path class="cls-17" d="M246.84,240.64a39,39,0,0,1,30.42,38.26c0,20.21-15.08,36.84-34.44,38.9"/><line class="cls-6" x1="238.76" y1="318.01" x2="238.76" y2="318.01"/><line class="cls-6" x1="238.76" y1="247.1" x2="238.76" y2="247.1"/><path class="cls-18" d="M246.76,248.2c12.88,3.64,22.35,15.87,22.35,30.4,0,16-11.45,29.18-26.3,31.23"/><line class="cls-6" x1="238.76" y1="310.11" x2="238.76" y2="310.11"/><line class="cls-6" x1="238.76" y1="254.99" x2="238.76" y2="254.99"/><path class="cls-19" d="M246.63,256.48a23.67,23.67,0,0,1,14.58,22.18c0,11.63-7.95,21.3-18.44,23.29"/><line class="cls-6" x1="238.76" y1="302.33" x2="238.76" y2="302.33"/><line class="cls-6" x1="238.76" y1="262.59" x2="238.76" y2="262.59"/><path class="cls-20" d="M246.45,264.71a15.7,15.7,0,0,1-3.7,28.48"/><line class="cls-6" x1="238.76" y1="293.73" x2="238.76" y2="293.73"/><line class="cls-6" x1="238.76" y1="270.64" x2="238.76" y2="270.64"/><path class="cls-21" d="M245.86,274.56a7.72,7.72,0,0,1,1.14,4,7.88,7.88,0,0,1-4.17,6.9"/><line class="cls-6" x1="238.76" y1="286.53" x2="238.76" y2="286.53"/><line class="cls-6" x1="238.76" y1="278.41" x2="238.76" y2="278.41"/><line class="cls-6" x1="238.76" y1="278.66" x2="238.76" y2="278.66"/></g><g id="red_half_circle" data-name="red half circle"><path class="cls-1" d="M233.62,402.23a123.19,123.19,0,1,1,0-246.37Z"/></g><g id="dots_curve" data-name="dots curve"><line class="cls-22" x1="217.11" y1="143.9" x2="217.11" y2="143.9"/><path class="cls-23" d="M196.93,145.74c-57.89,10.69-102,66.62-102,134,0,71.24,49.33,129.68,112.09,135.4"/><line class="cls-22" x1="217.11" y1="415.62" x2="217.11" y2="415.62"/></g><g id="rect_outline" data-name="rect outline"><polyline class="cls-4" points="233.62 59.25 475.53 59.25 475.53 108.67 475.53 59.25 2 59.25 2 532.78 475.53 532.78 475.53 429.43"/></g></g></svg>