<svg width="30" height="30" viewBox="0 0 30 30" fill="none" xmlns="http://www.w3.org/2000/svg">
<path d="M12.1325 5.625C11.5548 5.62383 10.9783 5.84356 10.5377 6.28418L10.5285 6.29517L5.072 11.7499C3.3095 13.5124 3.3095 16.3814 5.072 18.1439C6.84387 19.9064 9.70332 19.9064 11.4752 18.1439L18.6657 10.9534C19.1064 10.5034 19.1064 9.79183 18.6657 9.3512C18.2251 8.91058 17.5134 8.91058 17.0727 9.3512L9.87119 16.5418C8.98994 17.4324 7.55542 17.4324 6.67417 16.5418C6.23354 16.1011 6.01865 15.5282 6.01865 14.9469C6.01865 14.3657 6.23354 13.7854 6.67417 13.3447L13.7347 6.29517C13.2894 5.84986 12.7103 5.62618 12.1325 5.625ZM17.8656 5.62867C16.7089 5.62867 15.5535 6.06944 14.6722 6.95069L7.47251 14.1504C7.03188 14.591 7.03188 15.3046 7.47251 15.7452C7.91313 16.1859 8.63406 16.1859 9.07468 15.7452L16.2652 8.55286C17.1465 7.66224 18.581 7.66224 19.4623 8.55286C19.6873 8.77786 19.9679 8.88245 20.2679 8.88245C20.5492 8.88245 20.8506 8.77786 21.0663 8.55286C21.5069 8.11224 21.5069 7.39131 21.0663 6.95069C20.1803 6.06944 19.0222 5.62867 17.8656 5.62867ZM22.6648 10.5304C21.507 10.5304 20.3482 10.9738 19.4623 11.8597L12.2717 19.0503C11.8311 19.4909 11.8311 20.2118 12.2717 20.6525C12.7123 21.0931 13.4241 21.0931 13.8647 20.6525L21.0663 13.4528C21.9475 12.5715 23.382 12.5715 24.2633 13.4528C25.1445 14.3434 25.1445 15.7683 24.2633 16.6589L17.2027 23.7085C18.084 24.5898 19.5185 24.5898 20.3998 23.7085L25.8655 18.2538C27.628 16.4913 27.628 13.6222 25.8655 11.8597C24.9795 10.9738 23.8226 10.5304 22.6648 10.5304ZM22.6648 13.9288C22.3741 13.9288 22.0831 14.0399 21.8628 14.2603L14.6722 21.4508C13.791 22.3321 12.3564 22.3321 11.4752 21.4508H11.466C11.0254 21.0102 10.3118 21.0102 9.87119 21.4508C9.65557 21.6758 9.54343 21.9565 9.54343 22.2565C9.54343 22.5377 9.65557 22.8374 9.87119 23.053C10.7524 23.9342 11.9057 24.375 13.0682 24.375C14.2307 24.375 15.384 23.9342 16.2652 23.053L23.4649 15.8533C23.9056 15.4127 23.9056 14.7009 23.4649 14.2603C23.2446 14.0399 22.9554 13.9288 22.6648 13.9288Z" fill="#353532"/>
</svg>
