<svg width="25" height="20" viewBox="0 0 25 20" fill="none" xmlns="http://www.w3.org/2000/svg">
<path d="M9.13242 0.625005C8.55469 0.623833 7.9782 0.843559 7.53757 1.28418L7.52842 1.29517L2.07187 6.74988C0.309375 8.51238 0.309375 11.3814 2.07187 13.1439C3.84375 14.9064 6.7032 14.9064 8.47507 13.1439L15.6656 5.95337C16.1062 5.50337 16.1062 4.79183 15.6656 4.3512C15.225 3.91058 14.5132 3.91058 14.0726 4.3512L6.87107 11.5418C5.98982 12.4324 4.5553 12.4324 3.67405 11.5418C3.23342 11.1011 3.01853 10.5282 3.01853 9.9469C3.01853 9.36565 3.23342 8.78536 3.67405 8.34473L10.7346 1.29517C10.2893 0.849858 9.71016 0.626177 9.13242 0.625005ZM14.8655 0.628667C13.7088 0.628667 12.5533 1.06944 11.6721 1.95069L4.47239 9.1504C4.03176 9.59102 4.03176 10.3046 4.47239 10.7452C4.91301 11.1859 5.63394 11.1859 6.07456 10.7452L13.2651 3.55286C14.1464 2.66224 15.5809 2.66224 16.4621 3.55286C16.6871 3.77786 16.9678 3.88245 17.2678 3.88245C17.549 3.88245 17.8505 3.77786 18.0661 3.55286C18.5068 3.11224 18.5068 2.39131 18.0661 1.95069C17.1802 1.06944 16.0221 0.628667 14.8655 0.628667ZM19.6646 5.5304C18.5068 5.5304 17.3481 5.97381 16.4621 6.85975L9.27158 14.0503C8.83096 14.4909 8.83096 15.2118 9.27158 15.6525C9.71221 16.0931 10.424 16.0931 10.8646 15.6525L18.0661 8.45276C18.9474 7.57151 20.3819 7.57151 21.2632 8.45276C22.1444 9.34339 22.1444 10.7683 21.2632 11.6589L14.2026 18.7085C15.0839 19.5898 16.5184 19.5898 17.3996 18.7085L22.8653 13.2538C24.6278 11.4913 24.6278 8.62225 22.8653 6.85975C21.9794 5.97381 20.8225 5.5304 19.6646 5.5304ZM19.6646 8.92884C19.374 8.92884 19.083 9.03995 18.8626 9.26026L11.6721 16.4508C10.7908 17.3321 9.35632 17.3321 8.47507 16.4508H8.46592C8.02529 16.0102 7.31169 16.0102 6.87107 16.4508C6.65544 16.6758 6.54331 16.9565 6.54331 17.2565C6.54331 17.5377 6.65544 17.8374 6.87107 18.053C7.75232 18.9342 8.90559 19.375 10.0681 19.375C11.2306 19.375 12.3839 18.9342 13.2651 18.053L20.4648 10.8533C20.9054 10.4127 20.9054 9.70088 20.4648 9.26026C20.2445 9.03995 19.9553 8.92884 19.6646 8.92884Z" fill="#353532"/>
</svg>
