<svg width="30" height="30" viewBox="0 0 30 30" fill="none" xmlns="http://www.w3.org/2000/svg">
<path d="M26.5666 9.23505C26.0542 9.0177 25.4609 9.23295 25.2121 9.73065C24.9769 10.2011 24.6629 10.4898 24.2524 10.6106C23.6098 10.8027 22.8422 10.5559 22.4831 10.3449C22.0096 10.0666 21.4604 9.64455 20.8798 9.1983C19.0265 7.7724 16.7207 6 13.5518 6C11.0171 6 9.71514 7.30095 7.55949 9.45765C7.14894 9.8682 7.14579 10.536 7.55634 10.9455C7.95534 11.3466 8.59584 11.3592 9.00744 10.977C9.01794 10.9676 9.02844 10.9571 9.03894 10.9476C9.61854 10.5003 13.2704 10.935 14.8664 12.2034C17.2384 14.0882 18.9509 15.45 20.9018 15.45C23.6938 15.45 26.0248 13.622 27.1388 10.5591C27.3289 10.0362 27.0779 9.45555 26.5666 9.23505ZM21.3166 16.5851C20.8042 16.3677 20.2109 16.583 19.9621 17.0807C19.7269 17.5511 19.4129 17.8398 19.0024 17.9606C18.3598 18.1496 17.5922 17.906 17.2331 17.6949C16.7596 17.4167 16.2104 16.9946 15.6298 16.5483C13.7765 15.1224 11.4707 13.35 8.30184 13.35C5.76714 13.35 4.46514 14.651 2.30949 16.8077C1.89894 17.2182 1.89579 17.886 2.30634 18.2955C2.70534 18.6966 3.34689 18.7103 3.75849 18.327C3.76899 18.3176 3.77949 18.3071 3.78999 18.2976C4.36854 17.8503 8.02254 18.285 9.61749 19.5534C11.9884 21.4382 13.7009 22.8 15.6518 22.8C18.4438 22.8 20.7748 20.972 21.8888 17.9091C22.0789 17.3862 21.8279 16.8056 21.3166 16.5851Z" fill="#353532"/>
</svg>
