<svg width="26" height="17" viewBox="0 0 26 17" fill="none" xmlns="http://www.w3.org/2000/svg">
<path d="M24.5666 3.23505C24.0542 3.0177 23.4609 3.23295 23.2121 3.73065C22.9769 4.20105 22.6629 4.4898 22.2524 4.61055C21.6098 4.8027 20.8422 4.55595 20.4831 4.3449C20.0096 4.06665 19.4604 3.64455 18.8798 3.1983C17.0265 1.7724 14.7207 0 11.5518 0C9.01714 0 7.71514 1.30095 5.55949 3.45765C5.14894 3.8682 5.14579 4.536 5.55634 4.9455C5.95534 5.3466 6.59584 5.3592 7.00744 4.977C7.01794 4.96755 7.02844 4.95705 7.03894 4.9476C7.61854 4.5003 11.2704 4.935 12.8664 6.2034C15.2384 8.08815 16.9509 9.45 18.9018 9.45C21.6938 9.45 24.0248 7.62195 25.1388 4.5591C25.3289 4.0362 25.0779 3.45555 24.5666 3.23505ZM19.3166 10.5851C18.8042 10.3677 18.2109 10.583 17.9621 11.0807C17.7269 11.5511 17.4129 11.8398 17.0024 11.9606C16.3598 12.1496 15.5922 11.906 15.2331 11.6949C14.7596 11.4167 14.2104 10.9946 13.6298 10.5483C11.7765 9.1224 9.47074 7.35 6.30184 7.35C3.76714 7.35 2.46514 8.65095 0.309492 10.8077C-0.101058 11.2182 -0.104208 11.886 0.306342 12.2955C0.705342 12.6966 1.34689 12.7103 1.75849 12.327C1.76899 12.3176 1.77949 12.3071 1.78999 12.2976C2.36854 11.8503 6.02254 12.285 7.61749 13.5534C9.98839 15.4382 11.7009 16.8 13.6518 16.8C16.4438 16.8 18.7748 14.972 19.8888 11.9091C20.0789 11.3862 19.8279 10.8056 19.3166 10.5851Z" fill="#353532"/>
</svg>
