<svg width="26" height="26" viewBox="0 0 26 26" fill="none" xmlns="http://www.w3.org/2000/svg">
<path d="M0 2.8V22.4C0 23.947 1.253 25.2 2.8 25.2H22.4C23.947 25.2 25.2 23.947 25.2 22.4V2.8C25.2 1.253 23.947 0 22.4 0H2.8C1.253 0 0 1.253 0 2.8ZM14.9324 13.2314H11.9672V22.4H9.5774V13.2314H6.6738V11.2H14.9324V13.2314ZM15.3972 21.8764V19.425C15.3972 19.425 16.7356 20.4344 18.3428 20.4344C19.95 20.4344 19.887 19.3844 19.887 19.2402C19.887 17.7156 15.3356 17.7156 15.3356 14.3388C15.3356 9.7454 21.9674 11.5584 21.9674 11.5584L21.8848 13.741C21.8848 13.741 20.7732 12.999 19.516 12.999C18.2602 12.999 17.8066 13.5968 17.8066 14.2352C17.8066 15.883 22.4 15.7178 22.4 19.0344C22.4 24.1416 15.3972 21.8764 15.3972 21.8764Z" fill="#353532"/>
</svg>
