<svg width="32" height="32" viewBox="0 0 32 32" fill="none" xmlns="http://www.w3.org/2000/svg">
<path d="M22.0508 10.0051C21.5258 9.98006 21.0996 10.0558 21.0996 10.0558L25.0996 16.0558L21.0996 21.9562C21.0996 21.9562 22.8992 22.2562 23.6992 21.4562C24.1992 20.9562 24.4992 20.4558 26.1992 18.0558C26.4992 17.5558 26.8008 18.0558 26.8008 18.0558C28.3008 20.0558 28.7004 20.8562 29.4004 21.4562C30.3004 22.1562 32 21.9562 32 21.9562L28 16.0558L31.9004 10.0558C31.9004 10.0558 30.2004 9.75584 29.4004 10.5558C28.8004 11.1558 28.2008 11.9558 26.8008 14.0558C26.8008 14.0558 26.4992 14.5558 26.1992 14.0558C24.7992 12.0558 24.1996 11.1558 23.5996 10.5558C23.1996 10.1558 22.5758 10.0301 22.0508 10.0051ZM0.419922 10.0461C0.278516 10.0394 0.1375 10.0433 0 10.0558L3.19922 22.0558C3.19922 22.0558 4.19922 22.0566 4.69922 21.8566C5.39922 21.5566 5.69961 21.2554 6.09961 19.6554C6.49961 18.2554 7.49961 13.9554 7.59961 13.6554C7.79961 12.9554 8.10078 12.9554 8.30078 13.6554C8.40078 13.9554 9.40078 18.1554 9.80078 19.6554C10.2008 21.2554 10.4992 21.5566 11.1992 21.8566C11.7992 22.1566 12.8008 22.0558 12.8008 22.0558L16 10.0558C14.9 9.95584 13.6 10.5551 13.5 11.7551L11.8008 18.1554L10.4004 12.9562C10.1004 11.4562 9.39961 10.6554 8.09961 10.6554C6.79961 10.6554 6.20078 11.3562 5.80078 12.9562L4.40039 18.1554L2.69922 11.7551C2.43672 10.6176 1.40977 10.0926 0.419922 10.0461ZM19.5996 10.0558C19.5996 10.0558 18.8008 10.0551 18.3008 10.2551C17.7008 10.5551 17.5 11.1554 17.5 12.6554C17.5 12.6554 17.8008 12.3554 18.3008 12.1554C19.7008 11.6554 19.5996 10.6558 19.5996 10.0558ZM19.5 12.0558V12.132C19.5243 12.0885 19.5301 12.0558 19.5 12.0558ZM19.5 12.132C19.4436 12.2329 19.2498 12.4161 18.9004 12.5558C18.6004 12.7558 18.3 12.8562 18 12.9562C17.3 13.2562 17.4004 13.6554 17.4004 14.6554V22.0558C17.4004 22.0558 18.1992 22.1566 18.6992 21.8566C19.3992 21.5566 19.5 21.1554 19.5 19.6554V12.132Z" fill="black"/>
</svg>
